<svg xmlns="http://www.w3.org/2000/svg" xmlns:xlink="http://www.w3.org/1999/xlink" width="500" zoomAndPan="magnify" viewBox="0 0 375 374.999991" height="500" preserveAspectRatio="xMidYMid meet" version="1.0"><defs><g/><clipPath id="cf759e5f16"><path d="M 206 71.808594 L 210 71.808594 L 210 75 L 206 75 Z M 206 71.808594 " clip-rule="nonzero"/></clipPath><clipPath id="f17b50b4a2"><path d="M 102.21875 72 L 272 72 L 272 244 L 102.21875 244 Z M 102.21875 72 " clip-rule="nonzero"/></clipPath><clipPath id="c09a1287e4"><path d="M 269 166 L 272.46875 166 L 272.46875 170 L 269 170 Z M 269 166 " clip-rule="nonzero"/></clipPath><clipPath id="17e74d73a0"><path d="M 269 138 L 272.46875 138 L 272.46875 142 L 269 142 Z M 269 138 " clip-rule="nonzero"/></clipPath></defs><rect x="-37.5" width="450" fill="#ffffff" y="-37.499999" height="449.999989" fill-opacity="1"/><rect x="-37.5" width="450" fill="#10144a" y="-37.499999" height="449.999989" fill-opacity="1"/><path fill="#1086f4" d="M 258.933594 206.015625 C 258.933594 206.238281 258.890625 206.449219 258.808594 206.652344 C 258.722656 206.855469 258.601562 207.035156 258.449219 207.1875 C 258.292969 207.34375 258.113281 207.464844 257.910156 207.546875 C 257.707031 207.632812 257.496094 207.675781 257.277344 207.675781 C 257.054688 207.675781 256.84375 207.632812 256.640625 207.546875 C 256.4375 207.464844 256.257812 207.34375 256.105469 207.1875 C 255.949219 207.035156 255.828125 206.855469 255.746094 206.652344 C 255.660156 206.449219 255.617188 206.238281 255.617188 206.015625 C 255.617188 205.796875 255.660156 205.585938 255.746094 205.382812 C 255.828125 205.179688 255.949219 205 256.105469 204.847656 C 256.257812 204.691406 256.4375 204.570312 256.640625 204.488281 C 256.84375 204.402344 257.054688 204.359375 257.277344 204.359375 C 257.496094 204.359375 257.707031 204.402344 257.910156 204.488281 C 258.113281 204.570312 258.292969 204.691406 258.449219 204.847656 C 258.601562 205 258.722656 205.179688 258.808594 205.382812 C 258.890625 205.585938 258.933594 205.796875 258.933594 206.015625 Z M 258.933594 206.015625 " fill-opacity="1" fill-rule="nonzero"/><path fill="#1086f4" d="M 237.445312 224.699219 C 237.628906 224.878906 237.769531 225.089844 237.867188 225.328125 C 237.96875 225.566406 238.015625 225.816406 238.015625 226.074219 C 238.015625 226.332031 237.96875 226.578125 237.867188 226.816406 C 237.769531 227.054688 237.628906 227.265625 237.445312 227.449219 C 237.265625 227.628906 237.054688 227.769531 236.816406 227.871094 C 236.578125 227.96875 236.328125 228.015625 236.070312 228.015625 C 235.8125 228.015625 235.566406 227.96875 235.328125 227.871094 C 235.089844 227.769531 234.878906 227.628906 234.695312 227.449219 C 234.515625 227.265625 234.375 227.054688 234.273438 226.816406 C 234.175781 226.578125 234.125 226.332031 234.125 226.074219 C 234.125 225.816406 234.175781 225.566406 234.273438 225.328125 C 234.375 225.089844 234.515625 224.878906 234.695312 224.699219 C 234.878906 224.515625 235.089844 224.375 235.328125 224.277344 C 235.566406 224.175781 235.8125 224.128906 236.070312 224.128906 C 236.328125 224.128906 236.578125 224.175781 236.816406 224.277344 C 237.054688 224.375 237.265625 224.515625 237.445312 224.699219 Z M 237.445312 224.699219 " fill-opacity="1" fill-rule="nonzero"/><path fill="#1086f4" d="M 220.613281 216.453125 C 220.671875 216.6875 220.679688 216.925781 220.640625 217.164062 C 220.601562 217.402344 220.519531 217.625 220.390625 217.828125 C 220.265625 218.035156 220.101562 218.210938 219.90625 218.351562 C 219.710938 218.492188 219.492188 218.589844 219.257812 218.648438 C 219.023438 218.703125 218.785156 218.710938 218.546875 218.671875 C 218.308594 218.632812 218.085938 218.550781 217.878906 218.421875 C 217.671875 218.296875 217.5 218.132812 217.359375 217.9375 C 217.21875 217.742188 217.117188 217.523438 217.0625 217.289062 C 217.007812 217.054688 217 216.816406 217.039062 216.578125 C 217.078125 216.339844 217.160156 216.117188 217.285156 215.910156 C 217.414062 215.707031 217.574219 215.53125 217.773438 215.390625 C 217.96875 215.25 218.183594 215.148438 218.417969 215.09375 C 218.65625 215.039062 218.890625 215.03125 219.132812 215.070312 C 219.371094 215.109375 219.59375 215.191406 219.796875 215.316406 C 220.003906 215.445312 220.179688 215.605469 220.320312 215.804688 C 220.460938 216 220.558594 216.214844 220.613281 216.453125 Z M 220.613281 216.453125 " fill-opacity="1" fill-rule="nonzero"/><path fill="#1086f4" d="M 193.996094 230.488281 C 193.996094 230.703125 193.953125 230.914062 193.871094 231.113281 C 193.785156 231.3125 193.667969 231.492188 193.515625 231.644531 C 193.363281 231.796875 193.183594 231.917969 192.984375 232 C 192.785156 232.082031 192.574219 232.125 192.359375 232.125 C 192.140625 232.125 191.933594 232.082031 191.730469 232 C 191.53125 231.917969 191.355469 231.796875 191.199219 231.644531 C 191.046875 231.492188 190.929688 231.3125 190.847656 231.113281 C 190.761719 230.914062 190.722656 230.703125 190.722656 230.488281 C 190.722656 230.269531 190.761719 230.0625 190.847656 229.859375 C 190.929688 229.660156 191.046875 229.484375 191.199219 229.328125 C 191.355469 229.175781 191.53125 229.058594 191.730469 228.976562 C 191.933594 228.890625 192.140625 228.851562 192.359375 228.851562 C 192.574219 228.851562 192.785156 228.890625 192.984375 228.976562 C 193.183594 229.058594 193.363281 229.175781 193.515625 229.328125 C 193.667969 229.484375 193.785156 229.660156 193.871094 229.859375 C 193.953125 230.0625 193.996094 230.269531 193.996094 230.488281 Z M 193.996094 230.488281 " fill-opacity="1" fill-rule="nonzero"/><path fill="#1086f4" d="M 210.023438 189.386719 C 210.277344 189.492188 210.503906 189.644531 210.699219 189.839844 C 210.894531 190.035156 211.042969 190.261719 211.148438 190.515625 C 211.253906 190.769531 211.308594 191.035156 211.308594 191.3125 C 211.308594 191.585938 211.253906 191.851562 211.148438 192.109375 C 211.042969 192.363281 210.894531 192.589844 210.699219 192.785156 C 210.503906 192.980469 210.277344 193.128906 210.023438 193.234375 C 209.765625 193.339844 209.5 193.394531 209.226562 193.394531 C 208.949219 193.394531 208.683594 193.339844 208.429688 193.234375 C 208.175781 193.128906 207.949219 192.980469 207.753906 192.785156 C 207.558594 192.589844 207.410156 192.363281 207.300781 192.109375 C 207.195312 191.851562 207.144531 191.585938 207.144531 191.3125 C 207.144531 191.035156 207.195312 190.769531 207.300781 190.515625 C 207.410156 190.261719 207.558594 190.035156 207.753906 189.839844 C 207.949219 189.644531 208.175781 189.492188 208.429688 189.386719 C 208.683594 189.28125 208.949219 189.230469 209.226562 189.230469 C 209.5 189.230469 209.765625 189.28125 210.023438 189.386719 Z M 210.023438 189.386719 " fill-opacity="1" fill-rule="nonzero"/><path fill="#1086f4" d="M 253.691406 96.710938 C 253.691406 96.898438 253.65625 97.082031 253.582031 97.253906 C 253.511719 97.429688 253.40625 97.582031 253.273438 97.714844 C 253.140625 97.847656 252.988281 97.949219 252.8125 98.023438 C 252.640625 98.09375 252.457031 98.132812 252.269531 98.132812 C 252.082031 98.132812 251.902344 98.09375 251.726562 98.023438 C 251.550781 97.949219 251.398438 97.847656 251.265625 97.714844 C 251.132812 97.582031 251.03125 97.429688 250.957031 97.253906 C 250.886719 97.082031 250.847656 96.898438 250.847656 96.710938 C 250.847656 96.523438 250.886719 96.339844 250.957031 96.167969 C 251.03125 95.992188 251.132812 95.839844 251.265625 95.707031 C 251.398438 95.574219 251.550781 95.46875 251.726562 95.398438 C 251.902344 95.324219 252.082031 95.289062 252.269531 95.289062 C 252.457031 95.289062 252.640625 95.324219 252.8125 95.398438 C 252.988281 95.46875 253.140625 95.574219 253.273438 95.707031 C 253.40625 95.839844 253.511719 95.992188 253.582031 96.167969 C 253.65625 96.339844 253.691406 96.523438 253.691406 96.710938 Z M 253.691406 96.710938 " fill-opacity="1" fill-rule="nonzero"/><path fill="#1086f4" d="M 267.15625 121.738281 C 267.902344 121.738281 268.507812 121.132812 268.507812 120.386719 C 268.507812 119.640625 267.902344 119.035156 267.15625 119.035156 C 266.410156 119.035156 265.804688 119.640625 265.804688 120.386719 C 265.804688 121.132812 266.410156 121.738281 267.15625 121.738281 Z M 267.15625 121.738281 " fill-opacity="1" fill-rule="nonzero"/><path fill="#1086f4" d="M 214.433594 115.40625 C 214.597656 115.570312 214.726562 115.761719 214.8125 115.976562 C 214.902344 116.191406 214.949219 116.414062 214.949219 116.648438 C 214.949219 116.882812 214.902344 117.105469 214.8125 117.324219 C 214.726562 117.539062 214.597656 117.726562 214.433594 117.894531 C 214.265625 118.058594 214.078125 118.183594 213.863281 118.273438 C 213.644531 118.363281 213.421875 118.410156 213.1875 118.410156 C 212.953125 118.410156 212.730469 118.363281 212.515625 118.273438 C 212.300781 118.183594 212.109375 118.058594 211.945312 117.894531 C 211.777344 117.726562 211.652344 117.539062 211.5625 117.324219 C 211.472656 117.105469 211.429688 116.882812 211.429688 116.648438 C 211.429688 116.414062 211.472656 116.191406 211.5625 115.976562 C 211.652344 115.761719 211.777344 115.570312 211.945312 115.40625 C 212.109375 115.238281 212.300781 115.113281 212.515625 115.023438 C 212.730469 114.933594 212.953125 114.890625 213.1875 114.890625 C 213.421875 114.890625 213.644531 114.933594 213.863281 115.023438 C 214.078125 115.113281 214.265625 115.238281 214.433594 115.40625 Z M 214.433594 115.40625 " fill-opacity="1" fill-rule="nonzero"/><path fill="#1086f4" d="M 230.234375 119.886719 C 230.398438 120.054688 230.527344 120.242188 230.617188 120.460938 C 230.707031 120.675781 230.75 120.898438 230.75 121.132812 C 230.75 121.367188 230.707031 121.589844 230.617188 121.804688 C 230.527344 122.023438 230.398438 122.210938 230.234375 122.378906 C 230.070312 122.542969 229.878906 122.667969 229.664062 122.757812 C 229.449219 122.847656 229.222656 122.890625 228.992188 122.890625 C 228.757812 122.890625 228.53125 122.847656 228.316406 122.757812 C 228.101562 122.667969 227.910156 122.542969 227.746094 122.378906 C 227.582031 122.210938 227.453125 122.023438 227.363281 121.804688 C 227.277344 121.589844 227.230469 121.367188 227.230469 121.132812 C 227.230469 120.898438 227.277344 120.675781 227.363281 120.460938 C 227.453125 120.242188 227.582031 120.054688 227.746094 119.886719 C 227.910156 119.722656 228.101562 119.597656 228.316406 119.507812 C 228.53125 119.417969 228.757812 119.371094 228.992188 119.371094 C 229.222656 119.371094 229.449219 119.417969 229.664062 119.507812 C 229.878906 119.597656 230.070312 119.722656 230.234375 119.886719 Z M 230.234375 119.886719 " fill-opacity="1" fill-rule="nonzero"/><path fill="#1086f4" d="M 232.714844 134.265625 C 232.933594 134.355469 233.121094 134.480469 233.289062 134.644531 C 233.453125 134.8125 233.578125 135 233.667969 135.21875 C 233.757812 135.433594 233.804688 135.65625 233.804688 135.890625 C 233.804688 136.125 233.757812 136.347656 233.667969 136.5625 C 233.578125 136.78125 233.453125 136.96875 233.289062 137.136719 C 233.121094 137.300781 232.933594 137.425781 232.714844 137.515625 C 232.5 137.605469 232.277344 137.648438 232.042969 137.648438 C 231.808594 137.648438 231.585938 137.605469 231.371094 137.515625 C 231.152344 137.425781 230.964844 137.300781 230.796875 137.136719 C 230.632812 136.96875 230.507812 136.78125 230.417969 136.5625 C 230.328125 136.347656 230.285156 136.125 230.285156 135.890625 C 230.285156 135.65625 230.328125 135.433594 230.417969 135.21875 C 230.507812 135 230.632812 134.8125 230.796875 134.644531 C 230.964844 134.480469 231.152344 134.355469 231.371094 134.265625 C 231.585938 134.175781 231.808594 134.128906 232.042969 134.128906 C 232.277344 134.128906 232.5 134.175781 232.714844 134.265625 Z M 232.714844 134.265625 " fill-opacity="1" fill-rule="nonzero"/><path fill="#1086f4" d="M 232.460938 168.492188 C 232.515625 168.71875 232.523438 168.949219 232.484375 169.179688 C 232.449219 169.410156 232.367188 169.621094 232.246094 169.820312 C 232.121094 170.019531 231.964844 170.1875 231.777344 170.324219 C 231.585938 170.460938 231.378906 170.554688 231.152344 170.609375 C 230.925781 170.664062 230.695312 170.671875 230.464844 170.632812 C 230.234375 170.59375 230.019531 170.515625 229.824219 170.394531 C 229.625 170.269531 229.457031 170.113281 229.320312 169.925781 C 229.183594 169.734375 229.089844 169.527344 229.035156 169.300781 C 228.980469 169.074219 228.972656 168.84375 229.011719 168.613281 C 229.046875 168.382812 229.128906 168.167969 229.25 167.96875 C 229.375 167.773438 229.53125 167.605469 229.71875 167.46875 C 229.90625 167.332031 230.117188 167.238281 230.34375 167.183594 C 230.570312 167.128906 230.800781 167.121094 231.03125 167.160156 C 231.261719 167.195312 231.472656 167.277344 231.671875 167.398438 C 231.871094 167.523438 232.039062 167.675781 232.175781 167.867188 C 232.3125 168.054688 232.40625 168.265625 232.460938 168.492188 Z M 232.460938 168.492188 " fill-opacity="1" fill-rule="nonzero"/><path fill="#1086f4" d="M 213.1875 97.632812 C 212.429688 97.632812 211.8125 98.246094 211.8125 99.007812 C 211.8125 99.769531 212.429688 100.382812 213.1875 100.382812 C 213.949219 100.382812 214.5625 99.769531 214.5625 99.007812 C 214.5625 98.246094 213.949219 97.632812 213.1875 97.632812 Z M 213.1875 97.632812 " fill-opacity="1" fill-rule="nonzero"/><g clip-path="url(#cf759e5f16)"><path fill="#1086f4" d="M 207.523438 74.875 C 208.347656 74.875 209.015625 74.207031 209.015625 73.382812 C 209.015625 72.5625 208.347656 71.894531 207.523438 71.894531 C 206.703125 71.894531 206.035156 72.5625 206.035156 73.382812 C 206.035156 74.207031 206.703125 74.875 207.523438 74.875 Z M 207.523438 74.875 " fill-opacity="1" fill-rule="nonzero"/></g><g clip-path="url(#f17b50b4a2)"><path fill="#1086f4" d="M 269.433594 158.574219 C 270.523438 158.574219 271.402344 157.691406 271.402344 156.605469 C 271.402344 155.519531 270.519531 154.636719 269.433594 154.636719 C 268.347656 154.636719 267.464844 155.519531 267.464844 156.605469 C 267.464844 157.011719 267.589844 157.386719 267.796875 157.703125 L 258.886719 164.28125 C 258.613281 164.171875 258.320312 164.113281 258.007812 164.113281 C 257.597656 164.113281 257.210938 164.21875 256.871094 164.402344 L 240.230469 149.609375 C 240.742188 149.015625 241.054688 148.246094 241.054688 147.398438 C 241.054688 147.253906 241.042969 147.113281 241.027344 146.976562 L 258.503906 145.035156 C 258.738281 145.867188 259.496094 146.472656 260.398438 146.472656 C 261.488281 146.472656 262.367188 145.589844 262.367188 144.503906 C 262.367188 143.632812 261.800781 142.894531 261.019531 142.632812 L 262.296875 134.519531 C 262.296875 134.519531 262.320312 134.519531 262.324219 134.519531 C 263.25 134.519531 264 133.769531 264 132.84375 C 264 131.921875 263.25 131.171875 262.324219 131.171875 C 261.402344 131.171875 260.652344 131.921875 260.652344 132.84375 C 260.652344 133.535156 261.070312 134.128906 261.664062 134.382812 L 260.378906 142.53125 C 260.019531 142.53125 259.683594 142.632812 259.390625 142.804688 L 244 124.433594 C 244.773438 123.953125 245.292969 123.097656 245.292969 122.117188 C 245.292969 122.003906 245.28125 121.890625 245.269531 121.78125 L 254.078125 121.78125 C 254.078125 121.78125 254.078125 121.796875 254.078125 121.808594 C 254.078125 122.730469 254.828125 123.480469 255.753906 123.480469 C 256.675781 123.480469 257.425781 122.730469 257.425781 121.808594 C 257.425781 120.882812 256.675781 120.132812 255.753906 120.132812 C 255.0625 120.132812 254.476562 120.546875 254.21875 121.140625 L 245.109375 121.140625 C 244.84375 120.460938 244.324219 119.917969 243.660156 119.625 L 242.574219 106.035156 C 243.296875 105.730469 243.804688 105.023438 243.804688 104.191406 C 243.804688 103.089844 242.910156 102.195312 241.808594 102.195312 C 240.703125 102.195312 239.8125 103.089844 239.8125 104.191406 C 239.8125 104.289062 239.820312 104.378906 239.832031 104.46875 L 227.179688 108.453125 C 226.96875 107.191406 225.890625 106.226562 224.578125 106.1875 L 219.523438 90.226562 C 219.886719 89.882812 220.152344 89.445312 220.285156 88.953125 L 227.527344 90.304688 C 227.574219 91.234375 228.335938 91.976562 229.277344 91.976562 C 230.21875 91.976562 231.035156 91.1875 231.035156 90.214844 C 231.035156 89.242188 230.25 88.457031 229.277344 88.457031 C 228.5625 88.457031 227.945312 88.886719 227.671875 89.5 L 220.375 88.136719 C 220.316406 86.6875 219.125 85.523438 217.660156 85.523438 C 216.839844 85.523438 216.109375 85.886719 215.613281 86.460938 L 191.773438 78.082031 C 191.945312 77.628906 192.042969 77.144531 192.042969 76.632812 C 192.042969 74.386719 190.222656 72.566406 187.976562 72.566406 C 185.730469 72.566406 183.90625 74.386719 183.90625 76.632812 C 183.90625 76.863281 183.933594 77.089844 183.96875 77.308594 L 159.59375 81.414062 C 159.109375 80.101562 157.851562 79.164062 156.375 79.164062 C 154.480469 79.164062 152.945312 80.699219 152.945312 82.59375 C 152.945312 82.777344 152.960938 82.949219 152.988281 83.125 L 120.34375 108.660156 C 119.761719 107.621094 118.652344 106.917969 117.375 106.917969 C 115.496094 106.917969 113.972656 108.441406 113.972656 110.316406 C 113.972656 111.695312 114.796875 112.882812 115.976562 113.414062 L 104.289062 155.988281 C 103.070312 156.507812 102.21875 157.714844 102.21875 159.121094 C 102.21875 160.53125 103.121094 161.800781 104.390625 162.292969 L 113.125 196.867188 C 111.949219 197.761719 111.1875 199.171875 111.1875 200.769531 C 111.1875 203.480469 113.386719 205.679688 116.097656 205.679688 C 116.855469 205.679688 117.566406 205.503906 118.207031 205.195312 L 139.449219 226.972656 C 139.253906 227.40625 139.140625 227.882812 139.140625 228.386719 C 139.140625 230.265625 140.664062 231.785156 142.542969 231.785156 C 143.855469 231.785156 144.992188 231.039062 145.5625 229.949219 L 169.460938 238.394531 C 169.4375 238.582031 169.425781 238.765625 169.425781 238.953125 C 169.425781 241.65625 171.617188 243.847656 174.316406 243.847656 C 176.808594 243.847656 178.855469 241.988281 179.167969 239.585938 L 208.675781 235.753906 C 208.851562 236.980469 209.90625 237.925781 211.183594 237.925781 C 212.585938 237.925781 213.722656 236.789062 213.722656 235.390625 C 213.722656 235.277344 213.710938 235.167969 213.699219 235.0625 L 227.488281 232.917969 L 227.449219 232.273438 L 213.535156 234.433594 C 213.402344 234.117188 213.210938 233.828125 212.972656 233.589844 L 230.808594 212.160156 C 231.109375 212.246094 231.425781 212.292969 231.75 212.292969 C 232.480469 212.292969 233.15625 212.058594 233.710938 211.671875 L 242.199219 214.367188 C 242.199219 214.367188 242.199219 214.371094 242.199219 214.375 C 242.199219 215.523438 243.132812 216.457031 244.28125 216.457031 C 245.433594 216.457031 246.363281 215.523438 246.363281 214.375 C 246.363281 213.222656 245.433594 212.292969 244.28125 212.292969 C 243.363281 212.292969 242.578125 212.890625 242.308594 213.722656 L 234.273438 211.171875 C 234.824219 210.570312 235.160156 209.769531 235.160156 208.894531 C 235.160156 207.542969 234.367188 206.375 233.21875 205.824219 L 233.824219 196.417969 C 234.050781 196.5 234.292969 196.550781 234.546875 196.550781 C 235.695312 196.550781 236.628906 195.621094 236.628906 194.46875 C 236.628906 194.191406 236.570312 193.925781 236.472656 193.683594 L 249.710938 186.925781 C 249.921875 187.210938 250.199219 187.445312 250.519531 187.59375 L 247.542969 197.96875 C 246.4375 198.015625 245.550781 198.925781 245.550781 200.046875 C 245.550781 201.167969 246.480469 202.128906 247.632812 202.128906 C 248.78125 202.128906 249.710938 201.195312 249.710938 200.046875 C 249.710938 199.089844 249.070312 198.285156 248.1875 198.042969 L 251.136719 187.777344 C 251.222656 187.785156 251.308594 187.792969 251.394531 187.792969 C 252.164062 187.792969 252.839844 187.371094 253.199219 186.75 L 260.535156 189.5625 C 260.53125 189.609375 260.519531 189.65625 260.519531 189.703125 C 260.519531 190.617188 261.265625 191.359375 262.179688 191.359375 C 263.09375 191.359375 263.835938 190.617188 263.835938 189.703125 C 263.835938 188.789062 263.09375 188.046875 262.179688 188.046875 C 261.542969 188.046875 260.992188 188.414062 260.714844 188.941406 L 253.429688 186.144531 C 253.460938 186.003906 253.480469 185.859375 253.480469 185.710938 C 253.480469 185.4375 253.425781 185.171875 253.328125 184.933594 L 257.765625 182.292969 L 257.4375 181.738281 L 253 184.378906 C 252.617188 183.921875 252.039062 183.625 251.398438 183.625 C 250.890625 183.625 250.429688 183.808594 250.066406 184.109375 L 241.257812 176.363281 C 241.429688 176.035156 241.527344 175.664062 241.527344 175.269531 C 241.527344 174.917969 241.449219 174.582031 241.3125 174.28125 L 255.90625 167.628906 C 256.308594 168.382812 257.101562 168.898438 258.015625 168.898438 C 258.378906 168.898438 258.71875 168.816406 259.027344 168.667969 L 265.332031 176.019531 L 265.820312 175.601562 L 259.578125 168.316406 C 260.082031 167.875 260.410156 167.230469 260.410156 166.507812 C 260.410156 165.785156 260.054688 165.078125 259.503906 164.636719 L 268.253906 158.175781 C 268.585938 158.429688 268.996094 158.582031 269.445312 158.582031 Z M 120.613281 111.355469 L 127.746094 114.410156 C 127.378906 115.050781 127.164062 115.792969 127.164062 116.582031 C 127.164062 117.730469 127.609375 118.78125 128.339844 119.558594 L 118.878906 133.4375 C 118.746094 133.394531 118.613281 133.363281 118.476562 133.347656 L 117.808594 113.6875 C 119.128906 113.519531 120.214844 112.59375 120.613281 111.355469 Z M 198.984375 183.730469 C 198.566406 183.367188 198.058594 183.101562 197.496094 182.976562 L 197.335938 163.21875 C 197.433594 163.222656 197.527344 163.234375 197.625 163.234375 C 198.980469 163.234375 200.210938 162.726562 201.152344 161.894531 C 204.910156 165.964844 213.195312 174.957031 216.769531 178.917969 C 216.292969 179.390625 215.996094 180.042969 215.972656 180.761719 L 198.984375 183.726562 Z M 204.421875 207.917969 C 204.421875 208.246094 204.484375 208.5625 204.589844 208.855469 L 187.011719 210.847656 C 186.722656 210.152344 186.222656 209.566406 185.597656 209.15625 L 196.019531 189.609375 C 196.257812 189.664062 196.5 189.691406 196.75 189.691406 C 197.316406 189.691406 197.847656 189.550781 198.320312 189.304688 L 205.566406 205.703125 C 204.875 206.195312 204.421875 207.003906 204.421875 207.917969 Z M 156.601562 208.8125 C 156.566406 207.488281 155.707031 206.378906 154.511719 205.972656 L 161.648438 188.777344 C 161.988281 188.851562 162.339844 188.890625 162.703125 188.890625 C 163.46875 188.890625 164.191406 188.710938 164.835938 188.394531 L 180.8125 209.769531 C 180.261719 210.371094 179.910156 211.152344 179.847656 212.015625 L 156.601562 208.808594 Z M 138.644531 183.257812 C 139.195312 182.890625 139.640625 182.371094 139.898438 181.753906 L 157.824219 184.316406 C 157.953125 186.292969 159.246094 187.945312 161.027344 188.597656 L 153.871094 205.832031 C 153.753906 205.820312 153.636719 205.8125 153.523438 205.8125 C 152.867188 205.8125 152.261719 206.015625 151.761719 206.367188 L 138.640625 183.257812 Z M 118.628906 172.617188 L 127.089844 156.003906 C 127.945312 156.734375 129.050781 157.175781 130.269531 157.175781 C 130.289062 157.175781 130.3125 157.175781 130.332031 157.175781 L 135.957031 177.125 C 134.875 177.390625 133.996094 178.171875 133.601562 179.199219 L 119.488281 174.554688 C 119.503906 174.453125 119.515625 174.355469 119.515625 174.253906 C 119.515625 173.570312 119.160156 172.96875 118.628906 172.617188 Z M 135.851562 115.984375 L 145.054688 112.28125 C 145.230469 112.898438 145.695312 113.386719 146.292969 113.601562 L 146.375 127.621094 C 146.160156 127.738281 145.972656 127.894531 145.820312 128.085938 L 135.148438 119.03125 C 135.621094 118.332031 135.898438 117.488281 135.898438 116.585938 C 135.898438 116.382812 135.882812 116.183594 135.855469 115.988281 Z M 217.28125 178.527344 C 213.695312 174.546875 205.382812 165.527344 201.613281 161.445312 C 202.457031 160.503906 202.976562 159.253906 202.976562 157.890625 C 202.976562 157.738281 202.964844 157.59375 202.949219 157.445312 L 219.859375 156.25 C 220.058594 157.09375 220.652344 157.785156 221.433594 158.121094 L 218.527344 178.140625 C 218.074219 178.167969 217.644531 178.304688 217.277344 178.53125 Z M 183.570312 208.558594 C 182.710938 208.558594 181.921875 208.851562 181.289062 209.339844 L 165.398438 188.082031 C 166.417969 187.40625 167.167969 186.355469 167.457031 185.125 L 193.359375 186.53125 C 193.441406 187.777344 194.199219 188.835938 195.269531 189.359375 L 185.015625 208.851562 C 184.570312 208.664062 184.078125 208.5625 183.566406 208.5625 Z M 140.105469 181.09375 C 140.148438 180.875 140.167969 180.652344 140.167969 180.425781 C 140.167969 179.066406 139.367188 177.894531 138.21875 177.351562 L 145.515625 165.324219 C 146.003906 165.59375 146.5625 165.746094 147.152344 165.746094 C 147.960938 165.746094 148.703125 165.464844 149.289062 164.992188 L 160.71875 179.539062 C 159.125 180.246094 157.984375 181.78125 157.832031 183.597656 Z M 134.464844 154.789062 L 143.851562 161.535156 C 143.789062 161.796875 143.75 162.066406 143.75 162.347656 C 143.75 163.398438 144.226562 164.335938 144.976562 164.964844 L 137.707031 177.160156 C 137.410156 177.078125 137.09375 177.027344 136.769531 177.027344 C 136.699219 177.027344 136.628906 177.035156 136.558594 177.039062 L 131.003906 157.125 C 132.476562 156.902344 133.734375 156.023438 134.464844 154.792969 Z M 146.992188 113.722656 C 147.945312 113.710938 148.734375 113.023438 148.914062 112.121094 L 161.769531 114.628906 C 161.769531 114.65625 161.765625 114.683594 161.765625 114.707031 C 161.765625 115.363281 162 115.96875 162.386719 116.441406 L 148.324219 127.828125 C 148.019531 127.574219 147.628906 127.410156 147.199219 127.410156 C 147.179688 127.410156 147.15625 127.417969 147.136719 127.417969 L 146.996094 113.726562 Z M 176.5 106.121094 C 176.5 106.121094 176.503906 106.121094 176.511719 106.121094 L 183.183594 125.757812 C 183.066406 125.84375 182.957031 125.9375 182.859375 126.046875 L 166.992188 115.886719 C 167.164062 115.527344 167.261719 115.128906 167.261719 114.707031 C 167.261719 114.230469 167.136719 113.78125 166.925781 113.390625 L 175.222656 105.5625 C 175.542969 105.90625 175.996094 106.125 176.503906 106.125 Z M 194.117188 108.820312 C 194.382812 108.820312 194.636719 108.796875 194.890625 108.761719 L 199.511719 130.058594 C 199.074219 130.238281 198.714844 130.566406 198.484375 130.972656 L 186.328125 127.488281 C 186.328125 127.445312 186.335938 127.40625 186.335938 127.367188 C 186.335938 126.648438 185.953125 126.019531 185.382812 125.671875 L 192.335938 108.53125 C 192.898438 108.71875 193.496094 108.820312 194.121094 108.820312 Z M 214.636719 138.3125 L 200.832031 153.617188 C 200.089844 153.058594 199.203125 152.6875 198.230469 152.578125 L 200.445312 134.167969 C 201.328125 134.125 202.066406 133.550781 202.351562 132.753906 L 214 136.089844 C 213.976562 136.230469 213.960938 136.378906 213.960938 136.527344 C 213.960938 137.210938 214.21875 137.835938 214.636719 138.3125 Z M 192.785156 160.160156 L 180.492188 165.714844 C 180.128906 165.253906 179.5625 164.953125 178.925781 164.953125 C 178.605469 164.953125 178.300781 165.03125 178.03125 165.167969 L 166.59375 149.558594 C 167.410156 149.054688 168.085938 148.355469 168.558594 147.519531 L 192.722656 155.753906 C 192.433594 156.40625 192.273438 157.128906 192.273438 157.890625 C 192.273438 158.699219 192.457031 159.46875 192.78125 160.160156 Z M 163.800781 179.242188 L 163.46875 150.414062 C 163.507812 150.414062 163.546875 150.421875 163.585938 150.421875 C 164.457031 150.421875 165.28125 150.21875 166.027344 149.871094 L 177.507812 165.546875 C 177.15625 165.90625 176.9375 166.398438 176.9375 166.941406 C 176.9375 167.324219 177.046875 167.679688 177.234375 167.988281 L 165.457031 179.96875 C 164.960938 179.628906 164.398438 179.382812 163.796875 179.242188 Z M 164.511719 117.453125 C 165.378906 117.453125 166.148438 117.054688 166.652344 116.429688 L 182.515625 126.585938 C 182.410156 126.824219 182.355469 127.089844 182.355469 127.367188 C 182.355469 127.738281 182.457031 128.085938 182.636719 128.382812 L 167.835938 140.878906 C 166.875 139.808594 165.515625 139.101562 163.984375 138.996094 L 164.292969 117.441406 C 164.363281 117.449219 164.4375 117.453125 164.507812 117.453125 Z M 199.804688 134.105469 L 197.585938 152.546875 C 197.238281 152.546875 196.898438 152.582031 196.566406 152.648438 L 185.46875 129.007812 C 185.789062 128.789062 186.039062 128.480469 186.183594 128.117188 L 198.246094 131.574219 C 198.214844 131.722656 198.195312 131.875 198.195312 132.035156 C 198.195312 133.03125 198.878906 133.867188 199.804688 134.105469 Z M 168.246094 141.382812 L 183.054688 128.878906 C 183.402344 129.179688 183.851562 129.355469 184.347656 129.355469 C 184.535156 129.355469 184.714844 129.328125 184.886719 129.28125 L 195.9375 152.820312 C 194.703125 153.230469 193.671875 154.074219 193.023438 155.175781 L 168.855469 146.9375 C 169.144531 146.25 169.308594 145.492188 169.308594 144.699219 C 169.308594 143.457031 168.910156 142.320312 168.246094 141.378906 Z M 148.953125 129.167969 C 148.953125 128.773438 148.816406 128.417969 148.601562 128.125 L 162.902344 116.929688 C 163.132812 117.09375 163.386719 117.230469 163.660156 117.316406 L 163.347656 138.992188 C 161.675781 139.058594 160.191406 139.839844 159.1875 141.042969 L 148.382812 130.453125 C 148.730469 130.128906 148.949219 129.679688 148.949219 129.167969 Z M 159.527344 148.734375 L 149.410156 159.808594 C 148.808594 159.277344 148.019531 158.949219 147.152344 158.949219 C 145.792969 158.949219 144.621094 159.75 144.074219 160.90625 L 134.761719 154.210938 C 135.015625 153.625 135.15625 152.972656 135.15625 152.292969 C 135.15625 151.429688 134.929688 150.621094 134.539062 149.917969 L 158.113281 146.386719 C 158.390625 147.28125 158.878906 148.085938 159.523438 148.734375 Z M 162.703125 179.117188 C 162.230469 179.117188 161.785156 179.183594 161.355469 179.308594 L 149.753906 164.539062 C 150.253906 163.945312 150.554688 163.183594 150.554688 162.347656 C 150.554688 161.570312 150.289062 160.855469 149.847656 160.28125 L 160.007812 149.164062 C 160.800781 149.800781 161.765625 150.222656 162.820312 150.367188 L 163.152344 179.140625 C 163.003906 179.128906 162.851562 179.117188 162.703125 179.117188 Z M 177.660156 168.472656 C 178.003906 168.757812 178.445312 168.929688 178.925781 168.929688 C 179.355469 168.929688 179.75 168.789062 180.074219 168.5625 L 194.632812 183.636719 C 193.949219 184.179688 193.480469 184.976562 193.371094 185.890625 L 167.566406 184.492188 C 167.582031 184.335938 167.589844 184.175781 167.589844 184.007812 C 167.589844 182.566406 166.960938 181.269531 165.964844 180.375 L 177.660156 168.476562 Z M 195.183594 183.277344 L 180.53125 168.105469 C 180.773438 167.777344 180.914062 167.375 180.914062 166.9375 C 180.914062 166.707031 180.875 166.488281 180.800781 166.28125 L 193.097656 160.722656 C 193.886719 161.980469 195.179688 162.886719 196.695312 163.152344 L 196.855469 182.898438 C 196.824219 182.898438 196.789062 182.894531 196.75 182.894531 C 196.1875 182.894531 195.65625 183.035156 195.1875 183.277344 Z M 219.78125 155.605469 L 202.859375 156.804688 C 202.636719 155.722656 202.085938 154.765625 201.316406 154.03125 L 215.109375 138.742188 C 215.554688 139.058594 216.09375 139.242188 216.675781 139.242188 C 216.890625 139.242188 217.09375 139.214844 217.292969 139.171875 L 221.574219 153.066406 C 220.53125 153.445312 219.785156 154.4375 219.777344 155.609375 Z M 214.171875 135.46875 L 202.472656 132.113281 C 202.472656 132.085938 202.476562 132.058594 202.476562 132.03125 C 202.476562 130.847656 201.515625 129.890625 200.335938 129.890625 C 200.265625 129.890625 200.199219 129.894531 200.128906 129.902344 L 195.519531 108.640625 C 196.023438 108.511719 196.5 108.320312 196.941406 108.066406 L 215.339844 134.152344 C 214.816406 134.445312 214.402344 134.910156 214.167969 135.46875 Z M 191.726562 108.292969 L 184.777344 125.425781 C 184.636719 125.394531 184.488281 125.375 184.339844 125.375 C 184.132812 125.375 183.933594 125.40625 183.75 125.464844 L 177.140625 105.992188 C 177.789062 105.734375 178.25 105.105469 178.25 104.363281 C 178.25 104.316406 178.242188 104.265625 178.238281 104.21875 L 188.453125 103.878906 C 188.726562 105.84375 189.992188 107.492188 191.730469 108.289062 Z M 174.738281 104.367188 C 174.738281 104.609375 174.785156 104.839844 174.875 105.050781 L 166.566406 112.890625 C 166.0625 112.320312 165.328125 111.957031 164.503906 111.957031 C 164.484375 111.957031 164.46875 111.957031 164.449219 111.957031 L 157.699219 85.753906 C 158.019531 85.621094 158.316406 85.4375 158.574219 85.21875 L 175.257812 103.113281 C 174.9375 103.429688 174.734375 103.871094 174.734375 104.359375 Z M 156.375 86.023438 C 156.636719 86.023438 156.894531 85.992188 157.140625 85.9375 L 163.800781 112.050781 C 162.851562 112.300781 162.109375 113.046875 161.855469 113.992188 L 148.925781 111.46875 C 148.832031 110.789062 148.398438 110.21875 147.796875 109.9375 L 155.964844 85.996094 C 156.101562 86.015625 156.234375 86.023438 156.371094 86.023438 Z M 146.222656 130.625 C 146.5 130.8125 146.832031 130.917969 147.1875 130.917969 C 147.410156 130.917969 147.621094 130.871094 147.816406 130.796875 L 158.792969 141.5625 C 158.203125 142.460938 157.855469 143.539062 157.855469 144.699219 C 157.855469 145.058594 157.894531 145.410156 157.960938 145.753906 L 134.144531 149.324219 C 133.933594 149.050781 133.699219 148.796875 133.433594 148.574219 Z M 222.050781 158.300781 C 222.199219 158.324219 222.347656 158.339844 222.5 158.339844 C 224.003906 158.339844 225.222656 157.121094 225.222656 155.621094 C 225.222656 155.371094 225.183594 155.125 225.125 154.898438 L 234.980469 149.5 C 235.207031 149.785156 235.472656 150.035156 235.777344 150.238281 L 219.230469 177.757812 L 222.050781 158.304688 Z M 224.875 154.292969 C 224.410156 153.460938 223.519531 152.898438 222.5 152.898438 C 222.398438 152.898438 222.296875 152.90625 222.203125 152.914062 L 217.902344 138.953125 C 218.371094 138.714844 218.757812 138.351562 219.027344 137.902344 L 235.242188 145.003906 C 234.632812 145.617188 234.253906 146.464844 234.253906 147.394531 C 234.253906 147.957031 234.394531 148.488281 234.632812 148.957031 L 224.878906 154.292969 Z M 235.796875 144.542969 L 219.28125 137.308594 C 219.359375 137.058594 219.398438 136.796875 219.398438 136.523438 C 219.398438 136.152344 219.324219 135.800781 219.191406 135.476562 L 240.300781 123.613281 C 240.554688 124 240.90625 124.316406 241.316406 124.53125 L 236.875 144.089844 C 236.484375 144.175781 236.121094 144.335938 235.796875 144.546875 Z M 240.015625 123.035156 L 218.875 134.917969 C 218.53125 134.445312 218.046875 134.089844 217.476562 133.917969 L 224.054688 111.578125 C 224.203125 111.605469 224.351562 111.621094 224.507812 111.621094 C 225.261719 111.621094 225.945312 111.3125 226.4375 110.816406 L 239.953125 121.382812 C 239.890625 121.613281 239.851562 121.859375 239.851562 122.113281 C 239.851562 122.4375 239.910156 122.746094 240.015625 123.03125 Z M 223.433594 111.402344 L 216.835938 133.808594 C 216.785156 133.808594 216.730469 133.800781 216.679688 133.800781 C 216.429688 133.800781 216.1875 133.835938 215.953125 133.898438 L 197.484375 107.710938 C 198.480469 106.980469 199.234375 105.945312 199.59375 104.734375 L 221.792969 108.738281 C 221.792969 108.792969 221.785156 108.84375 221.785156 108.898438 C 221.785156 110.023438 222.464844 110.984375 223.433594 111.402344 Z M 188.398438 103.230469 L 178.039062 103.542969 C 177.746094 102.988281 177.167969 102.605469 176.496094 102.605469 C 176.261719 102.605469 176.039062 102.652344 175.839844 102.734375 L 158.949219 84.855469 C 159.234375 84.53125 159.457031 84.160156 159.601562 83.75 L 188.816406 100.929688 C 188.542969 101.597656 188.390625 102.324219 188.390625 103.09375 C 188.390625 103.136719 188.398438 103.179688 188.398438 103.230469 Z M 155.175781 85.800781 L 147.152344 109.753906 C 147.089844 109.75 147.023438 109.746094 146.957031 109.746094 C 145.859375 109.746094 144.96875 110.636719 144.96875 111.734375 C 144.96875 111.742188 144.96875 111.75 144.96875 111.757812 L 135.71875 115.386719 C 135.492188 114.597656 135.050781 113.898438 134.460938 113.359375 L 154.550781 85.496094 C 154.746094 85.621094 154.957031 85.722656 155.171875 85.804688 Z M 134.738281 119.53125 L 145.515625 128.675781 C 145.46875 128.828125 145.433594 128.992188 145.433594 129.160156 C 145.433594 129.539062 145.554688 129.882812 145.757812 130.167969 L 132.921875 148.183594 C 132.242188 147.746094 131.453125 147.46875 130.601562 147.410156 L 132.125 120.898438 C 133.152344 120.757812 134.066406 120.257812 134.734375 119.527344 Z M 129.957031 147.410156 C 128.71875 147.484375 127.609375 148.015625 126.785156 148.84375 L 119.550781 136.632812 C 119.929688 136.285156 120.167969 135.789062 120.167969 135.234375 C 120.167969 134.628906 119.882812 134.089844 119.441406 133.746094 L 128.8125 120.003906 C 129.546875 120.585938 130.46875 120.9375 131.472656 120.949219 L 129.949219 147.414062 Z M 118.269531 137.136719 C 118.535156 137.136719 118.785156 137.078125 119.015625 136.984375 L 126.347656 149.363281 C 125.738281 150.179688 125.371094 151.1875 125.371094 152.289062 C 125.371094 152.421875 125.382812 152.550781 125.390625 152.683594 L 108.734375 157.757812 C 108.503906 157.238281 108.152344 156.789062 107.707031 156.445312 L 117.554688 136.996094 C 117.777344 137.085938 118.019531 137.136719 118.273438 137.136719 Z M 108.929688 158.367188 L 125.484375 153.324219 C 125.675781 154.210938 126.109375 155.003906 126.707031 155.636719 L 118.046875 172.363281 C 117.890625 172.320312 117.722656 172.296875 117.550781 172.296875 C 117.222656 172.296875 116.914062 172.378906 116.640625 172.523438 L 108.179688 161.355469 C 108.699219 160.753906 109.015625 159.976562 109.015625 159.121094 C 109.015625 158.863281 108.984375 158.613281 108.929688 158.367188 Z M 117.925781 176.167969 C 118.515625 176.054688 119.015625 175.671875 119.285156 175.15625 L 133.421875 179.808594 C 133.386719 180.007812 133.363281 180.210938 133.363281 180.417969 C 133.363281 181.429688 133.808594 182.335938 134.511719 182.957031 L 120.089844 197.914062 C 119.359375 196.894531 118.25 196.164062 116.964844 195.933594 L 117.925781 176.164062 Z M 120.4375 198.480469 L 135.039062 183.34375 C 135.546875 183.644531 136.136719 183.816406 136.765625 183.816406 C 137.238281 183.816406 137.691406 183.722656 138.097656 183.546875 L 151.308594 206.746094 C 151.050781 207.015625 150.835938 207.332031 150.6875 207.679688 L 120.925781 201.609375 C 120.972656 201.332031 121.003906 201.054688 121.003906 200.765625 C 121.003906 199.941406 120.796875 199.167969 120.4375 198.480469 Z M 156.546875 209.457031 L 179.851562 212.667969 C 179.996094 214.117188 180.972656 215.316406 182.296875 215.796875 L 177.160156 234.976562 C 176.359375 234.402344 175.375 234.058594 174.316406 234.058594 C 173.253906 234.058594 172.222656 234.417969 171.410156 235.019531 L 154.476562 211.808594 C 155.535156 211.464844 156.339844 210.5625 156.546875 209.453125 Z M 177.699219 235.425781 L 182.910156 215.964844 C 183.125 216 183.339844 216.023438 183.566406 216.023438 C 184.605469 216.023438 185.546875 215.597656 186.226562 214.910156 L 208.953125 234.167969 C 208.796875 234.453125 208.695312 234.765625 208.660156 235.101562 L 179.203125 238.917969 C 179.195312 237.546875 178.617188 236.3125 177.699219 235.425781 Z M 209.320312 233.664062 L 186.628906 214.425781 C 187.054688 213.820312 187.304688 213.085938 187.304688 212.289062 C 187.304688 212.007812 187.269531 211.734375 187.210938 211.472656 L 204.910156 209.464844 C 205.347656 210.097656 206.046875 210.535156 206.851562 210.621094 L 210.449219 232.960938 C 210.011719 233.09375 209.628906 233.339844 209.324219 233.664062 Z M 206.128906 205.394531 L 198.863281 188.953125 C 199.648438 188.332031 200.148438 187.371094 200.148438 186.292969 C 200.148438 185.546875 199.90625 184.859375 199.5 184.296875 L 216.027344 181.410156 C 216.191406 182.191406 216.6875 182.847656 217.363281 183.230469 L 208.875 205.820312 C 208.40625 205.433594 207.800781 205.199219 207.144531 205.199219 C 206.785156 205.199219 206.445312 205.269531 206.132812 205.394531 Z M 209.355469 206.347656 L 217.957031 183.472656 C 218.191406 183.535156 218.433594 183.574219 218.6875 183.574219 C 219.359375 183.574219 219.972656 183.328125 220.449219 182.925781 L 232.996094 193.070312 C 232.664062 193.441406 232.457031 193.929688 232.457031 194.46875 C 232.457031 194.632812 232.476562 194.792969 232.515625 194.949219 L 209.59375 206.746094 C 209.523438 206.605469 209.449219 206.472656 209.359375 206.347656 Z M 234.535156 192.382812 C 234.164062 192.382812 233.816406 192.484375 233.515625 192.652344 L 220.882812 182.449219 C 221.207031 182 221.402344 181.449219 221.402344 180.851562 C 221.402344 180.636719 221.375 180.429688 221.328125 180.226562 L 236.820312 175.898438 C 237.023438 176.632812 237.570312 177.226562 238.273438 177.492188 L 234.917969 192.417969 C 234.796875 192.394531 234.664062 192.378906 234.535156 192.378906 Z M 236.738281 175.253906 L 221.105469 179.621094 C 220.800781 179.019531 220.28125 178.550781 219.648438 178.3125 L 236.351562 150.539062 C 236.707031 150.6875 237.09375 150.773438 237.492188 150.789062 L 238.695312 172.914062 C 237.585938 173.113281 236.738281 174.085938 236.738281 175.253906 Z M 258.902344 143.214844 C 258.628906 143.535156 258.457031 143.941406 258.433594 144.390625 L 240.886719 146.339844 C 240.441406 144.980469 239.164062 143.992188 237.652344 143.992188 C 237.625 143.992188 237.59375 143.996094 237.5625 143.996094 L 241.933594 124.753906 C 242.140625 124.804688 242.355469 124.832031 242.578125 124.832031 C 242.863281 124.832031 243.140625 124.789062 243.398438 124.707031 L 258.90625 143.210938 Z M 241.8125 106.179688 C 241.855469 106.179688 241.898438 106.175781 241.941406 106.171875 L 243 119.429688 C 242.859375 119.410156 242.71875 119.394531 242.574219 119.394531 C 241.5625 119.394531 240.679688 119.949219 240.210938 120.765625 L 226.832031 110.308594 C 227.046875 109.957031 227.183594 109.550781 227.21875 109.113281 L 240.03125 105.078125 C 240.359375 105.730469 241.03125 106.179688 241.8125 106.179688 Z M 223.925781 106.246094 C 222.960938 106.453125 222.1875 107.171875 221.902344 108.109375 L 199.734375 104.113281 C 199.792969 103.785156 199.832031 103.445312 199.832031 103.097656 C 199.832031 101.808594 199.402344 100.625 198.679688 99.664062 L 215.476562 89.867188 C 215.976562 90.535156 216.765625 90.964844 217.660156 90.964844 C 218.136719 90.964844 218.582031 90.84375 218.972656 90.625 Z M 215.238281 87.011719 C 215.050781 87.378906 214.941406 87.800781 214.941406 88.246094 C 214.941406 88.625 215.019531 88.984375 215.15625 89.3125 L 198.261719 99.164062 C 197.214844 98.066406 195.746094 97.375 194.109375 97.375 C 193.664062 97.375 193.226562 97.433594 192.804688 97.527344 L 188.890625 80.59375 C 190.003906 80.339844 190.9375 79.625 191.496094 78.667969 Z M 184.125 77.9375 C 184.667969 79.546875 186.183594 80.703125 187.976562 80.703125 C 188.066406 80.703125 188.160156 80.699219 188.253906 80.691406 L 192.191406 97.71875 C 190.863281 98.191406 189.761719 99.132812 189.09375 100.351562 L 159.761719 83.109375 C 159.789062 82.941406 159.804688 82.773438 159.804688 82.597656 C 159.804688 82.40625 159.785156 82.222656 159.757812 82.039062 Z M 153.164062 83.804688 C 153.355469 84.304688 153.65625 84.75 154.042969 85.105469 L 133.957031 112.960938 C 133.265625 112.492188 132.425781 112.21875 131.523438 112.21875 C 130.140625 112.21875 128.910156 112.867188 128.109375 113.875 L 120.742188 110.71875 C 120.757812 110.589844 120.765625 110.460938 120.765625 110.328125 C 120.765625 109.960938 120.707031 109.609375 120.597656 109.277344 Z M 116.585938 113.625 C 116.773438 113.667969 116.964844 113.695312 117.164062 113.710938 L 117.832031 133.390625 C 116.996094 133.585938 116.378906 134.335938 116.378906 135.234375 C 116.378906 135.796875 116.625 136.300781 117.011719 136.648438 L 107.164062 156.09375 C 106.703125 155.855469 106.179688 155.71875 105.621094 155.71875 C 105.414062 155.71875 105.210938 155.738281 105.019531 155.773438 Z M 105.101562 162.476562 C 105.269531 162.503906 105.441406 162.523438 105.621094 162.523438 C 106.410156 162.523438 107.140625 162.25 107.71875 161.796875 L 116.136719 172.90625 C 115.804688 173.253906 115.601562 173.726562 115.601562 174.25 C 115.601562 175.234375 116.328125 176.046875 117.273438 176.183594 L 116.105469 195.855469 C 116.105469 195.855469 116.101562 195.855469 116.097656 195.855469 C 115.222656 195.855469 114.40625 196.085938 113.695312 196.484375 Z M 118.789062 204.867188 C 119.726562 204.25 120.4375 203.328125 120.78125 202.230469 L 150.503906 208.296875 C 150.464844 208.488281 150.445312 208.683594 150.445312 208.886719 C 150.445312 209.773438 150.820312 210.570312 151.421875 211.132812 L 143.320312 225.074219 C 143.070312 225.015625 142.808594 224.980469 142.542969 224.980469 C 141.40625 224.980469 140.40625 225.539062 139.785156 226.394531 Z M 145.800781 229.351562 C 145.894531 229.042969 145.941406 228.71875 145.941406 228.382812 C 145.941406 227 145.121094 225.816406 143.9375 225.28125 L 151.9375 211.523438 C 152.398438 211.800781 152.941406 211.964844 153.523438 211.964844 C 153.609375 211.964844 153.691406 211.957031 153.773438 211.949219 L 170.929688 235.425781 C 170.28125 236.050781 169.804688 236.851562 169.578125 237.753906 Z M 212.4375 233.183594 C 212.070312 232.96875 211.636719 232.847656 211.183594 232.847656 C 211.148438 232.847656 211.109375 232.847656 211.074219 232.851562 L 207.492188 210.613281 C 208.816406 210.445312 209.84375 209.320312 209.863281 207.957031 L 228.355469 209.023438 C 228.402344 210.257812 229.109375 211.328125 230.136719 211.882812 Z M 232.613281 205.601562 C 232.335938 205.527344 232.050781 205.484375 231.75 205.484375 C 230.042969 205.484375 228.636719 206.738281 228.390625 208.375 L 209.796875 207.304688 C 209.789062 207.273438 209.78125 207.246094 209.769531 207.21875 L 232.796875 195.59375 C 232.941406 195.8125 233.125 196.003906 233.335938 196.15625 L 232.609375 205.601562 Z M 249.636719 184.582031 C 249.433594 184.902344 249.3125 185.285156 249.3125 185.699219 C 249.3125 185.921875 249.351562 186.144531 249.417969 186.347656 L 236.15625 193.148438 C 235.984375 192.933594 235.769531 192.757812 235.527344 192.625 L 238.8125 177.621094 C 238.917969 177.632812 239.027344 177.644531 239.136719 177.644531 C 239.828125 177.644531 240.449219 177.351562 240.886719 176.882812 L 249.640625 184.582031 Z M 240.96875 173.722656 C 240.570312 173.253906 239.996094 172.933594 239.34375 172.875 L 238.144531 150.746094 C 238.753906 150.660156 239.3125 150.414062 239.773438 150.046875 L 256.347656 164.777344 C 255.898438 165.214844 255.621094 165.820312 255.621094 166.488281 C 255.621094 166.667969 255.644531 166.84375 255.679688 167.011719 L 240.96875 173.71875 Z M 240.96875 173.722656 " fill-opacity="1" fill-rule="nonzero"/></g><g clip-path="url(#c09a1287e4)"><path fill="#1086f4" d="M 272.507812 167.648438 C 272.507812 167.835938 272.472656 168.015625 272.402344 168.1875 C 272.328125 168.359375 272.226562 168.511719 272.09375 168.644531 C 271.960938 168.777344 271.808594 168.878906 271.636719 168.949219 C 271.464844 169.023438 271.285156 169.058594 271.097656 169.058594 C 270.910156 169.058594 270.730469 169.023438 270.558594 168.949219 C 270.386719 168.878906 270.230469 168.777344 270.101562 168.644531 C 269.96875 168.511719 269.867188 168.359375 269.792969 168.1875 C 269.722656 168.015625 269.6875 167.835938 269.6875 167.648438 C 269.6875 167.460938 269.722656 167.28125 269.792969 167.109375 C 269.867188 166.933594 269.96875 166.78125 270.101562 166.648438 C 270.230469 166.519531 270.386719 166.414062 270.558594 166.34375 C 270.730469 166.273438 270.910156 166.238281 271.097656 166.238281 C 271.285156 166.238281 271.464844 166.273438 271.636719 166.34375 C 271.808594 166.414062 271.960938 166.519531 272.09375 166.648438 C 272.226562 166.78125 272.328125 166.933594 272.402344 167.109375 C 272.472656 167.28125 272.507812 167.460938 272.507812 167.648438 Z M 272.507812 167.648438 " fill-opacity="1" fill-rule="nonzero"/></g><path fill="#1086f4" d="M 247.574219 163.414062 C 247.628906 163.628906 247.636719 163.847656 247.597656 164.066406 C 247.5625 164.285156 247.488281 164.488281 247.371094 164.679688 C 247.253906 164.867188 247.105469 165.027344 246.925781 165.15625 C 246.746094 165.285156 246.546875 165.375 246.332031 165.429688 C 246.113281 165.480469 245.898438 165.488281 245.679688 165.449219 C 245.460938 165.414062 245.253906 165.339844 245.066406 165.222656 C 244.878906 165.105469 244.71875 164.957031 244.589844 164.777344 C 244.457031 164.597656 244.367188 164.398438 244.316406 164.183594 C 244.265625 163.96875 244.257812 163.75 244.292969 163.53125 C 244.328125 163.3125 244.40625 163.105469 244.523438 162.917969 C 244.640625 162.730469 244.789062 162.570312 244.96875 162.441406 C 245.148438 162.308594 245.347656 162.21875 245.5625 162.167969 C 245.777344 162.117188 245.996094 162.109375 246.214844 162.144531 C 246.433594 162.179688 246.636719 162.257812 246.828125 162.375 C 247.015625 162.492188 247.175781 162.640625 247.304688 162.820312 C 247.433594 163 247.523438 163.199219 247.574219 163.414062 Z M 247.574219 163.414062 " fill-opacity="1" fill-rule="nonzero"/><path fill="#1086f4" d="M 254.617188 175.738281 C 254.617188 176.292969 255.066406 176.746094 255.621094 176.746094 C 256.175781 176.746094 256.628906 176.292969 256.628906 175.738281 C 256.628906 175.183594 256.175781 174.730469 255.621094 174.730469 C 255.066406 174.730469 254.617188 175.183594 254.617188 175.738281 Z M 254.617188 175.738281 " fill-opacity="1" fill-rule="nonzero"/><path fill="#1086f4" d="M 229.355469 181.882812 C 228.800781 181.882812 228.347656 182.335938 228.347656 182.890625 C 228.347656 183.445312 228.800781 183.898438 229.355469 183.898438 C 229.910156 183.898438 230.363281 183.445312 230.363281 182.890625 C 230.363281 182.335938 229.910156 181.882812 229.355469 181.882812 Z M 229.355469 181.882812 " fill-opacity="1" fill-rule="nonzero"/><path fill="#1086f4" d="M 225.597656 145.210938 C 225.042969 145.210938 224.59375 145.664062 224.59375 146.21875 C 224.59375 146.773438 225.042969 147.226562 225.597656 147.226562 C 226.152344 147.226562 226.605469 146.773438 226.605469 146.21875 C 226.605469 145.664062 226.152344 145.210938 225.597656 145.210938 Z M 225.597656 145.210938 " fill-opacity="1" fill-rule="nonzero"/><path fill="#1086f4" d="M 219.851562 193.457031 C 219.296875 193.457031 218.84375 193.90625 218.84375 194.460938 C 218.84375 195.015625 219.296875 195.46875 219.851562 195.46875 C 220.40625 195.46875 220.855469 195.015625 220.855469 194.460938 C 220.855469 193.90625 220.40625 193.457031 219.851562 193.457031 Z M 219.851562 193.457031 " fill-opacity="1" fill-rule="nonzero"/><path fill="#1086f4" d="M 202.726562 216.828125 C 202.171875 216.828125 201.722656 217.28125 201.722656 217.835938 C 201.722656 218.390625 202.171875 218.84375 202.726562 218.84375 C 203.28125 218.84375 203.734375 218.390625 203.734375 217.835938 C 203.734375 217.28125 203.28125 216.828125 202.726562 216.828125 Z M 202.726562 216.828125 " fill-opacity="1" fill-rule="nonzero"/><path fill="#1086f4" d="M 259.222656 154.554688 C 259.273438 154.769531 259.28125 154.988281 259.246094 155.207031 C 259.210938 155.425781 259.132812 155.628906 259.015625 155.816406 C 258.898438 156.007812 258.75 156.164062 258.570312 156.296875 C 258.390625 156.425781 258.195312 156.515625 257.976562 156.566406 C 257.761719 156.617188 257.542969 156.625 257.324219 156.589844 C 257.105469 156.554688 256.902344 156.476562 256.710938 156.363281 C 256.523438 156.246094 256.363281 156.097656 256.234375 155.917969 C 256.105469 155.738281 256.015625 155.539062 255.964844 155.320312 C 255.914062 155.105469 255.90625 154.886719 255.941406 154.667969 C 255.976562 154.449219 256.050781 154.246094 256.167969 154.058594 C 256.285156 153.867188 256.433594 153.710938 256.613281 153.578125 C 256.792969 153.449219 256.992188 153.359375 257.207031 153.308594 C 257.425781 153.257812 257.640625 153.25 257.859375 153.285156 C 258.082031 153.320312 258.285156 153.398438 258.472656 153.511719 C 258.660156 153.628906 258.820312 153.777344 258.949219 153.957031 C 259.082031 154.140625 259.171875 154.335938 259.222656 154.554688 Z M 259.222656 154.554688 " fill-opacity="1" fill-rule="nonzero"/><path fill="#1086f4" d="M 247.417969 137.191406 C 247.46875 137.40625 247.476562 137.625 247.441406 137.84375 C 247.40625 138.0625 247.328125 138.265625 247.210938 138.453125 C 247.09375 138.644531 246.945312 138.804688 246.765625 138.933594 C 246.585938 139.0625 246.390625 139.152344 246.171875 139.203125 C 245.957031 139.253906 245.738281 139.261719 245.519531 139.226562 C 245.300781 139.191406 245.097656 139.117188 244.90625 139 C 244.71875 138.882812 244.558594 138.734375 244.429688 138.554688 C 244.300781 138.375 244.210938 138.175781 244.160156 137.960938 C 244.109375 137.742188 244.101562 137.527344 244.136719 137.304688 C 244.171875 137.085938 244.246094 136.882812 244.363281 136.695312 C 244.480469 136.503906 244.628906 136.347656 244.808594 136.214844 C 244.988281 136.085938 245.1875 135.996094 245.402344 135.945312 C 245.621094 135.894531 245.835938 135.886719 246.054688 135.921875 C 246.277344 135.957031 246.480469 136.035156 246.667969 136.152344 C 246.855469 136.265625 247.015625 136.414062 247.144531 136.59375 C 247.277344 136.777344 247.367188 136.972656 247.417969 137.191406 Z M 247.417969 137.191406 " fill-opacity="1" fill-rule="nonzero"/><path fill="#1086f4" d="M 200.492188 87.863281 C 200.542969 88.078125 200.550781 88.296875 200.515625 88.515625 C 200.480469 88.734375 200.402344 88.9375 200.289062 89.128906 C 200.171875 89.316406 200.023438 89.476562 199.84375 89.605469 C 199.660156 89.734375 199.464844 89.824219 199.246094 89.875 C 199.03125 89.925781 198.8125 89.933594 198.59375 89.898438 C 198.375 89.863281 198.171875 89.789062 197.984375 89.671875 C 197.792969 89.554688 197.632812 89.40625 197.503906 89.226562 C 197.375 89.046875 197.285156 88.847656 197.234375 88.632812 C 197.183594 88.414062 197.175781 88.199219 197.210938 87.980469 C 197.246094 87.761719 197.320312 87.554688 197.4375 87.367188 C 197.554688 87.179688 197.703125 87.019531 197.882812 86.890625 C 198.0625 86.757812 198.261719 86.667969 198.476562 86.617188 C 198.695312 86.566406 198.914062 86.558594 199.132812 86.59375 C 199.351562 86.628906 199.554688 86.707031 199.742188 86.824219 C 199.933594 86.941406 200.089844 87.089844 200.222656 87.269531 C 200.351562 87.449219 200.441406 87.648438 200.492188 87.863281 Z M 200.492188 87.863281 " fill-opacity="1" fill-rule="nonzero"/><path fill="#1086f4" d="M 182.179688 87.863281 C 182.230469 88.078125 182.238281 88.296875 182.203125 88.515625 C 182.167969 88.734375 182.089844 88.9375 181.972656 89.125 C 181.855469 89.316406 181.707031 89.476562 181.527344 89.605469 C 181.347656 89.734375 181.148438 89.824219 180.933594 89.875 C 180.71875 89.925781 180.5 89.933594 180.28125 89.898438 C 180.0625 89.863281 179.859375 89.785156 179.667969 89.671875 C 179.480469 89.554688 179.320312 89.40625 179.191406 89.226562 C 179.0625 89.046875 178.972656 88.847656 178.921875 88.628906 C 178.867188 88.414062 178.859375 88.195312 178.898438 87.976562 C 178.933594 87.757812 179.007812 87.554688 179.125 87.367188 C 179.242188 87.175781 179.390625 87.019531 179.570312 86.886719 C 179.75 86.757812 179.949219 86.667969 180.164062 86.617188 C 180.382812 86.566406 180.597656 86.558594 180.816406 86.59375 C 181.035156 86.628906 181.242188 86.707031 181.429688 86.820312 C 181.617188 86.9375 181.777344 87.085938 181.90625 87.265625 C 182.039062 87.449219 182.128906 87.644531 182.179688 87.863281 Z M 182.179688 87.863281 " fill-opacity="1" fill-rule="nonzero"/><g clip-path="url(#17e74d73a0)"><path fill="#1086f4" d="M 272.726562 139.8125 C 272.777344 140.027344 272.785156 140.246094 272.75 140.464844 C 272.714844 140.683594 272.636719 140.886719 272.523438 141.074219 C 272.40625 141.265625 272.257812 141.425781 272.078125 141.554688 C 271.894531 141.683594 271.699219 141.773438 271.480469 141.824219 C 271.265625 141.875 271.046875 141.882812 270.828125 141.847656 C 270.609375 141.8125 270.40625 141.734375 270.21875 141.621094 C 270.027344 141.503906 269.867188 141.355469 269.738281 141.175781 C 269.609375 140.996094 269.519531 140.796875 269.46875 140.578125 C 269.417969 140.363281 269.410156 140.144531 269.445312 139.925781 C 269.480469 139.707031 269.554688 139.503906 269.671875 139.316406 C 269.789062 139.125 269.9375 138.96875 270.117188 138.835938 C 270.296875 138.707031 270.496094 138.617188 270.714844 138.566406 C 270.929688 138.515625 271.148438 138.507812 271.367188 138.542969 C 271.585938 138.578125 271.789062 138.65625 271.976562 138.769531 C 272.167969 138.886719 272.324219 139.035156 272.457031 139.214844 C 272.585938 139.398438 272.675781 139.59375 272.726562 139.8125 Z M 272.726562 139.8125 " fill-opacity="1" fill-rule="nonzero"/></g><path fill="#1086f4" d="M 253.148438 111.3125 C 253.542969 111.832031 254.289062 111.929688 254.808594 111.53125 C 255.324219 111.136719 255.421875 110.386719 255.027344 109.871094 C 254.628906 109.351562 253.882812 109.253906 253.367188 109.652344 C 252.84375 110.050781 252.75 110.796875 253.148438 111.3125 Z M 253.148438 111.3125 " fill-opacity="1" fill-rule="nonzero"/><path fill="#1086f4" d="M 229.28125 97.871094 C 228.761719 98.269531 228.667969 99.015625 229.0625 99.53125 C 229.460938 100.046875 230.207031 100.148438 230.722656 99.75 C 231.246094 99.355469 231.339844 98.605469 230.945312 98.089844 C 230.546875 97.570312 229.800781 97.472656 229.28125 97.871094 Z M 229.28125 97.871094 " fill-opacity="1" fill-rule="nonzero"/><g fill="#ffffff" fill-opacity="1"><g transform="translate(71.185155, 277.789611)"><g><path d="M 16.71875 -10.1875 C 17.832031 -9.832031 18.707031 -9.238281 19.34375 -8.40625 C 19.976562 -7.582031 20.296875 -6.5625 20.296875 -5.34375 C 20.296875 -3.625 19.628906 -2.300781 18.296875 -1.375 C 16.960938 -0.457031 15.015625 0 12.453125 0 L 2.328125 0 L 2.328125 -19.59375 L 11.90625 -19.59375 C 14.289062 -19.59375 16.117188 -19.132812 17.390625 -18.21875 C 18.671875 -17.3125 19.3125 -16.070312 19.3125 -14.5 C 19.3125 -13.550781 19.082031 -12.703125 18.625 -11.953125 C 18.175781 -11.210938 17.539062 -10.625 16.71875 -10.1875 Z M 6.828125 -16.1875 L 6.828125 -11.5625 L 11.34375 -11.5625 C 12.457031 -11.5625 13.300781 -11.753906 13.875 -12.140625 C 14.457031 -12.535156 14.75 -13.117188 14.75 -13.890625 C 14.75 -14.648438 14.457031 -15.222656 13.875 -15.609375 C 13.300781 -15.992188 12.457031 -16.1875 11.34375 -16.1875 Z M 12.125 -3.421875 C 13.320312 -3.421875 14.222656 -3.613281 14.828125 -4 C 15.429688 -4.394531 15.734375 -5.003906 15.734375 -5.828125 C 15.734375 -7.453125 14.53125 -8.265625 12.125 -8.265625 L 6.828125 -8.265625 L 6.828125 -3.421875 Z M 12.125 -3.421875 "/></g></g></g><g fill="#ffffff" fill-opacity="1"><g transform="translate(95.40223, 277.789611)"><g><path d="M 9.46875 -7.703125 L 6.828125 -4.953125 L 6.828125 0 L 2.328125 0 L 2.328125 -19.59375 L 6.828125 -19.59375 L 6.828125 -10.4375 L 15.515625 -19.59375 L 20.546875 -19.59375 L 12.4375 -10.859375 L 21.03125 0 L 15.734375 0 Z M 9.46875 -7.703125 "/></g></g></g><g fill="#ffffff" fill-opacity="1"><g transform="translate(118.919397, 277.789611)"><g/></g></g><g fill="#ffffff" fill-opacity="1"><g transform="translate(129.64231, 277.789611)"><g><path d="M 15.234375 -4.203125 L 6.125 -4.203125 L 4.390625 0 L -0.25 0 L 8.484375 -19.59375 L 12.96875 -19.59375 L 21.734375 0 L 16.96875 0 Z M 13.796875 -7.640625 L 10.703125 -15.140625 L 7.59375 -7.640625 Z M 13.796875 -7.640625 "/></g></g></g><g fill="#ffffff" fill-opacity="1"><g transform="translate(153.887377, 277.789611)"><g><path d="M 2.328125 -19.59375 L 11.234375 -19.59375 C 13.359375 -19.59375 15.234375 -19.1875 16.859375 -18.375 C 18.492188 -17.570312 19.765625 -16.429688 20.671875 -14.953125 C 21.578125 -13.472656 22.03125 -11.753906 22.03125 -9.796875 C 22.03125 -7.835938 21.578125 -6.117188 20.671875 -4.640625 C 19.765625 -3.171875 18.492188 -2.03125 16.859375 -1.21875 C 15.234375 -0.40625 13.359375 0 11.234375 0 L 2.328125 0 Z M 11 -3.71875 C 12.957031 -3.71875 14.519531 -4.265625 15.6875 -5.359375 C 16.851562 -6.453125 17.4375 -7.929688 17.4375 -9.796875 C 17.4375 -11.660156 16.851562 -13.140625 15.6875 -14.234375 C 14.519531 -15.328125 12.957031 -15.875 11 -15.875 L 6.859375 -15.875 L 6.859375 -3.71875 Z M 11 -3.71875 "/></g></g></g><g fill="#ffffff" fill-opacity="1"><g transform="translate(179.812215, 277.789611)"><g><path d="M 21.171875 -19.59375 L 12.6875 0 L 8.203125 0 L -0.25 -19.59375 L 4.640625 -19.59375 L 10.609375 -5.59375 L 16.65625 -19.59375 Z M 21.171875 -19.59375 "/></g></g></g><g fill="#ffffff" fill-opacity="1"><g transform="translate(203.497363, 277.789611)"><g><path d="M 2.328125 -19.59375 L 6.859375 -19.59375 L 6.859375 0 L 2.328125 0 Z M 2.328125 -19.59375 "/></g></g></g><g fill="#ffffff" fill-opacity="1"><g transform="translate(215.480105, 277.789611)"><g><path d="M 8.765625 0.34375 C 7.210938 0.34375 5.710938 0.132812 4.265625 -0.28125 C 2.816406 -0.707031 1.65625 -1.257812 0.78125 -1.9375 L 2.328125 -5.34375 C 3.160156 -4.726562 4.15625 -4.234375 5.3125 -3.859375 C 6.476562 -3.484375 7.640625 -3.296875 8.796875 -3.296875 C 10.078125 -3.296875 11.023438 -3.488281 11.640625 -3.875 C 12.265625 -4.257812 12.578125 -4.769531 12.578125 -5.40625 C 12.578125 -5.875 12.394531 -6.257812 12.03125 -6.5625 C 11.664062 -6.875 11.195312 -7.125 10.625 -7.3125 C 10.050781 -7.5 9.28125 -7.703125 8.3125 -7.921875 C 6.820312 -8.273438 5.597656 -8.628906 4.640625 -8.984375 C 3.691406 -9.335938 2.875 -9.90625 2.1875 -10.6875 C 1.507812 -11.476562 1.171875 -12.523438 1.171875 -13.828125 C 1.171875 -14.972656 1.476562 -16.003906 2.09375 -16.921875 C 2.71875 -17.847656 3.648438 -18.582031 4.890625 -19.125 C 6.128906 -19.664062 7.644531 -19.9375 9.4375 -19.9375 C 10.6875 -19.9375 11.90625 -19.785156 13.09375 -19.484375 C 14.289062 -19.191406 15.335938 -18.765625 16.234375 -18.203125 L 14.84375 -14.75 C 13.03125 -15.78125 11.21875 -16.296875 9.40625 -16.296875 C 8.132812 -16.296875 7.195312 -16.085938 6.59375 -15.671875 C 5.988281 -15.265625 5.6875 -14.726562 5.6875 -14.0625 C 5.6875 -13.382812 6.035156 -12.878906 6.734375 -12.546875 C 7.429688 -12.222656 8.5 -11.90625 9.9375 -11.59375 C 11.4375 -11.238281 12.660156 -10.882812 13.609375 -10.53125 C 14.554688 -10.175781 15.367188 -9.613281 16.046875 -8.84375 C 16.734375 -8.082031 17.078125 -7.046875 17.078125 -5.734375 C 17.078125 -4.617188 16.765625 -3.597656 16.140625 -2.671875 C 15.515625 -1.742188 14.578125 -1.007812 13.328125 -0.46875 C 12.078125 0.0703125 10.554688 0.34375 8.765625 0.34375 Z M 8.765625 0.34375 "/></g></g></g><g fill="#ffffff" fill-opacity="1"><g transform="translate(236.141656, 277.789611)"><g><path d="M 11.8125 0.34375 C 9.78125 0.34375 7.945312 -0.09375 6.3125 -0.96875 C 4.675781 -1.851562 3.394531 -3.066406 2.46875 -4.609375 C 1.550781 -6.148438 1.09375 -7.878906 1.09375 -9.796875 C 1.09375 -11.722656 1.550781 -13.453125 2.46875 -14.984375 C 3.394531 -16.523438 4.675781 -17.734375 6.3125 -18.609375 C 7.945312 -19.492188 9.78125 -19.9375 11.8125 -19.9375 C 13.851562 -19.9375 15.679688 -19.492188 17.296875 -18.609375 C 18.921875 -17.734375 20.203125 -16.523438 21.140625 -14.984375 C 22.078125 -13.453125 22.546875 -11.722656 22.546875 -9.796875 C 22.546875 -7.878906 22.078125 -6.148438 21.140625 -4.609375 C 20.203125 -3.066406 18.921875 -1.851562 17.296875 -0.96875 C 15.679688 -0.09375 13.851562 0.34375 11.8125 0.34375 Z M 11.8125 -3.53125 C 12.96875 -3.53125 14.015625 -3.796875 14.953125 -4.328125 C 15.890625 -4.859375 16.625 -5.597656 17.15625 -6.546875 C 17.6875 -7.503906 17.953125 -8.585938 17.953125 -9.796875 C 17.953125 -11.015625 17.6875 -12.097656 17.15625 -13.046875 C 16.625 -13.992188 15.890625 -14.734375 14.953125 -15.265625 C 14.015625 -15.804688 12.96875 -16.078125 11.8125 -16.078125 C 10.65625 -16.078125 9.609375 -15.804688 8.671875 -15.265625 C 7.742188 -14.734375 7.015625 -13.992188 6.484375 -13.046875 C 5.953125 -12.097656 5.6875 -11.015625 5.6875 -9.796875 C 5.6875 -8.585938 5.953125 -7.503906 6.484375 -6.546875 C 7.015625 -5.597656 7.742188 -4.859375 8.671875 -4.328125 C 9.609375 -3.796875 10.65625 -3.53125 11.8125 -3.53125 Z M 11.8125 -3.53125 "/></g></g></g><g fill="#ffffff" fill-opacity="1"><g transform="translate(262.570434, 277.789611)"><g><path d="M 14.8125 0 L 11.03125 -5.453125 L 6.859375 -5.453125 L 6.859375 0 L 2.328125 0 L 2.328125 -19.59375 L 10.8125 -19.59375 C 12.539062 -19.59375 14.046875 -19.300781 15.328125 -18.71875 C 16.609375 -18.144531 17.59375 -17.328125 18.28125 -16.265625 C 18.96875 -15.203125 19.3125 -13.941406 19.3125 -12.484375 C 19.3125 -11.023438 18.960938 -9.769531 18.265625 -8.71875 C 17.566406 -7.664062 16.570312 -6.859375 15.28125 -6.296875 L 19.6875 0 Z M 14.734375 -12.484375 C 14.734375 -13.585938 14.375 -14.429688 13.65625 -15.015625 C 12.945312 -15.609375 11.914062 -15.90625 10.5625 -15.90625 L 6.859375 -15.90625 L 6.859375 -9.078125 L 10.5625 -9.078125 C 11.914062 -9.078125 12.945312 -9.375 13.65625 -9.96875 C 14.375 -10.5625 14.734375 -11.398438 14.734375 -12.484375 Z M 14.734375 -12.484375 "/></g></g></g><g fill="#ffffff" fill-opacity="1"><g transform="translate(285.947622, 277.789611)"><g><path d="M 8.765625 0.34375 C 7.210938 0.34375 5.710938 0.132812 4.265625 -0.28125 C 2.816406 -0.707031 1.65625 -1.257812 0.78125 -1.9375 L 2.328125 -5.34375 C 3.160156 -4.726562 4.15625 -4.234375 5.3125 -3.859375 C 6.476562 -3.484375 7.640625 -3.296875 8.796875 -3.296875 C 10.078125 -3.296875 11.023438 -3.488281 11.640625 -3.875 C 12.265625 -4.257812 12.578125 -4.769531 12.578125 -5.40625 C 12.578125 -5.875 12.394531 -6.257812 12.03125 -6.5625 C 11.664062 -6.875 11.195312 -7.125 10.625 -7.3125 C 10.050781 -7.5 9.28125 -7.703125 8.3125 -7.921875 C 6.820312 -8.273438 5.597656 -8.628906 4.640625 -8.984375 C 3.691406 -9.335938 2.875 -9.90625 2.1875 -10.6875 C 1.507812 -11.476562 1.171875 -12.523438 1.171875 -13.828125 C 1.171875 -14.972656 1.476562 -16.003906 2.09375 -16.921875 C 2.71875 -17.847656 3.648438 -18.582031 4.890625 -19.125 C 6.128906 -19.664062 7.644531 -19.9375 9.4375 -19.9375 C 10.6875 -19.9375 11.90625 -19.785156 13.09375 -19.484375 C 14.289062 -19.191406 15.335938 -18.765625 16.234375 -18.203125 L 14.84375 -14.75 C 13.03125 -15.78125 11.21875 -16.296875 9.40625 -16.296875 C 8.132812 -16.296875 7.195312 -16.085938 6.59375 -15.671875 C 5.988281 -15.265625 5.6875 -14.726562 5.6875 -14.0625 C 5.6875 -13.382812 6.035156 -12.878906 6.734375 -12.546875 C 7.429688 -12.222656 8.5 -11.90625 9.9375 -11.59375 C 11.4375 -11.238281 12.660156 -10.882812 13.609375 -10.53125 C 14.554688 -10.175781 15.367188 -9.613281 16.046875 -8.84375 C 16.734375 -8.082031 17.078125 -7.046875 17.078125 -5.734375 C 17.078125 -4.617188 16.765625 -3.597656 16.140625 -2.671875 C 15.515625 -1.742188 14.578125 -1.007812 13.328125 -0.46875 C 12.078125 0.0703125 10.554688 0.34375 8.765625 0.34375 Z M 8.765625 0.34375 "/></g></g></g><g fill="#1086f4" fill-opacity="1"><g transform="translate(48.619542, 295.341602)"><g><path d="M 4.59375 0.0625 C 3.832031 0.0625 3.144531 -0.101562 2.53125 -0.4375 C 1.914062 -0.78125 1.4375 -1.25 1.09375 -1.84375 C 0.75 -2.4375 0.578125 -3.101562 0.578125 -3.84375 C 0.578125 -4.59375 0.75 -5.265625 1.09375 -5.859375 C 1.4375 -6.453125 1.914062 -6.914062 2.53125 -7.25 C 3.15625 -7.59375 3.847656 -7.765625 4.609375 -7.765625 C 5.179688 -7.765625 5.707031 -7.664062 6.1875 -7.46875 C 6.675781 -7.28125 7.085938 -7.003906 7.421875 -6.640625 L 6.90625 -6.125 C 6.300781 -6.738281 5.539062 -7.046875 4.625 -7.046875 C 4.019531 -7.046875 3.46875 -6.90625 2.96875 -6.625 C 2.46875 -6.34375 2.078125 -5.957031 1.796875 -5.46875 C 1.515625 -4.988281 1.375 -4.445312 1.375 -3.84375 C 1.375 -3.25 1.515625 -2.707031 1.796875 -2.21875 C 2.078125 -1.738281 2.46875 -1.359375 2.96875 -1.078125 C 3.46875 -0.796875 4.019531 -0.65625 4.625 -0.65625 C 5.550781 -0.65625 6.3125 -0.960938 6.90625 -1.578125 L 7.421875 -1.0625 C 7.085938 -0.695312 6.675781 -0.414062 6.1875 -0.21875 C 5.695312 -0.03125 5.164062 0.0625 4.59375 0.0625 Z M 4.59375 0.0625 "/></g></g></g><g fill="#1086f4" fill-opacity="1"><g transform="translate(58.722977, 295.341602)"><g><path d="M 3.453125 0.0625 C 2.898438 0.0625 2.398438 -0.0625 1.953125 -0.3125 C 1.503906 -0.570312 1.148438 -0.925781 0.890625 -1.375 C 0.628906 -1.820312 0.5 -2.328125 0.5 -2.890625 C 0.5 -3.453125 0.628906 -3.957031 0.890625 -4.40625 C 1.148438 -4.851562 1.503906 -5.203125 1.953125 -5.453125 C 2.398438 -5.703125 2.898438 -5.828125 3.453125 -5.828125 C 4.015625 -5.828125 4.515625 -5.703125 4.953125 -5.453125 C 5.398438 -5.203125 5.75 -4.851562 6 -4.40625 C 6.257812 -3.957031 6.390625 -3.453125 6.390625 -2.890625 C 6.390625 -2.328125 6.257812 -1.820312 6 -1.375 C 5.75 -0.925781 5.398438 -0.570312 4.953125 -0.3125 C 4.515625 -0.0625 4.015625 0.0625 3.453125 0.0625 Z M 3.453125 -0.640625 C 3.859375 -0.640625 4.222656 -0.734375 4.546875 -0.921875 C 4.878906 -1.109375 5.132812 -1.375 5.3125 -1.71875 C 5.5 -2.0625 5.59375 -2.453125 5.59375 -2.890625 C 5.59375 -3.328125 5.5 -3.71875 5.3125 -4.0625 C 5.132812 -4.414062 4.878906 -4.679688 4.546875 -4.859375 C 4.222656 -5.046875 3.859375 -5.140625 3.453125 -5.140625 C 3.046875 -5.140625 2.675781 -5.046875 2.34375 -4.859375 C 2.019531 -4.679688 1.765625 -4.414062 1.578125 -4.0625 C 1.390625 -3.71875 1.296875 -3.328125 1.296875 -2.890625 C 1.296875 -2.453125 1.390625 -2.0625 1.578125 -1.71875 C 1.765625 -1.375 2.019531 -1.109375 2.34375 -0.921875 C 2.675781 -0.734375 3.046875 -0.640625 3.453125 -0.640625 Z M 3.453125 -0.640625 "/></g></g></g><g fill="#1086f4" fill-opacity="1"><g transform="translate(67.815121, 295.341602)"><g><path d="M 4.03125 -5.828125 C 4.757812 -5.828125 5.335938 -5.613281 5.765625 -5.1875 C 6.191406 -4.769531 6.40625 -4.160156 6.40625 -3.359375 L 6.40625 0 L 5.625 0 L 5.625 -3.28125 C 5.625 -3.882812 5.472656 -4.34375 5.171875 -4.65625 C 4.878906 -4.96875 4.453125 -5.125 3.890625 -5.125 C 3.265625 -5.125 2.769531 -4.9375 2.40625 -4.5625 C 2.050781 -4.195312 1.875 -3.6875 1.875 -3.03125 L 1.875 0 L 1.09375 0 L 1.09375 -5.78125 L 1.84375 -5.78125 L 1.84375 -4.71875 C 2.050781 -5.070312 2.34375 -5.34375 2.71875 -5.53125 C 3.09375 -5.726562 3.53125 -5.828125 4.03125 -5.828125 Z M 4.03125 -5.828125 "/></g></g></g><g fill="#1086f4" fill-opacity="1"><g transform="translate(77.456878, 295.341602)"><g><path d="M 4.03125 -5.828125 C 4.757812 -5.828125 5.335938 -5.613281 5.765625 -5.1875 C 6.191406 -4.769531 6.40625 -4.160156 6.40625 -3.359375 L 6.40625 0 L 5.625 0 L 5.625 -3.28125 C 5.625 -3.882812 5.472656 -4.34375 5.171875 -4.65625 C 4.878906 -4.96875 4.453125 -5.125 3.890625 -5.125 C 3.265625 -5.125 2.769531 -4.9375 2.40625 -4.5625 C 2.050781 -4.195312 1.875 -3.6875 1.875 -3.03125 L 1.875 0 L 1.09375 0 L 1.09375 -5.78125 L 1.84375 -5.78125 L 1.84375 -4.71875 C 2.050781 -5.070312 2.34375 -5.34375 2.71875 -5.53125 C 3.09375 -5.726562 3.53125 -5.828125 4.03125 -5.828125 Z M 4.03125 -5.828125 "/></g></g></g><g fill="#1086f4" fill-opacity="1"><g transform="translate(87.098636, 295.341602)"><g><path d="M 6.125 -2.65625 L 1.28125 -2.65625 C 1.332031 -2.050781 1.566406 -1.5625 1.984375 -1.1875 C 2.398438 -0.820312 2.925781 -0.640625 3.5625 -0.640625 C 3.925781 -0.640625 4.253906 -0.703125 4.546875 -0.828125 C 4.847656 -0.953125 5.109375 -1.140625 5.328125 -1.390625 L 5.78125 -0.890625 C 5.519531 -0.578125 5.195312 -0.335938 4.8125 -0.171875 C 4.425781 -0.015625 4.003906 0.0625 3.546875 0.0625 C 2.953125 0.0625 2.425781 -0.0625 1.96875 -0.3125 C 1.507812 -0.570312 1.148438 -0.925781 0.890625 -1.375 C 0.628906 -1.820312 0.5 -2.328125 0.5 -2.890625 C 0.5 -3.453125 0.625 -3.957031 0.875 -4.40625 C 1.125 -4.851562 1.460938 -5.203125 1.890625 -5.453125 C 2.316406 -5.703125 2.796875 -5.828125 3.328125 -5.828125 C 3.867188 -5.828125 4.347656 -5.703125 4.765625 -5.453125 C 5.191406 -5.203125 5.523438 -4.851562 5.765625 -4.40625 C 6.015625 -3.96875 6.140625 -3.460938 6.140625 -2.890625 Z M 3.328125 -5.15625 C 2.773438 -5.15625 2.304688 -4.976562 1.921875 -4.625 C 1.546875 -4.269531 1.332031 -3.804688 1.28125 -3.234375 L 5.390625 -3.234375 C 5.335938 -3.804688 5.125 -4.269531 4.75 -4.625 C 4.375 -4.976562 3.898438 -5.15625 3.328125 -5.15625 Z M 3.328125 -5.15625 "/></g></g></g><g fill="#1086f4" fill-opacity="1"><g transform="translate(95.937958, 295.341602)"><g><path d="M 3.484375 0.0625 C 2.910156 0.0625 2.398438 -0.0625 1.953125 -0.3125 C 1.503906 -0.5625 1.148438 -0.910156 0.890625 -1.359375 C 0.628906 -1.816406 0.5 -2.328125 0.5 -2.890625 C 0.5 -3.453125 0.628906 -3.957031 0.890625 -4.40625 C 1.148438 -4.851562 1.503906 -5.203125 1.953125 -5.453125 C 2.398438 -5.703125 2.910156 -5.828125 3.484375 -5.828125 C 3.984375 -5.828125 4.425781 -5.726562 4.8125 -5.53125 C 5.207031 -5.34375 5.519531 -5.0625 5.75 -4.6875 L 5.171875 -4.296875 C 4.984375 -4.578125 4.738281 -4.785156 4.4375 -4.921875 C 4.144531 -5.066406 3.828125 -5.140625 3.484375 -5.140625 C 3.066406 -5.140625 2.691406 -5.046875 2.359375 -4.859375 C 2.023438 -4.679688 1.765625 -4.414062 1.578125 -4.0625 C 1.390625 -3.71875 1.296875 -3.328125 1.296875 -2.890625 C 1.296875 -2.441406 1.390625 -2.046875 1.578125 -1.703125 C 1.765625 -1.367188 2.023438 -1.109375 2.359375 -0.921875 C 2.691406 -0.734375 3.066406 -0.640625 3.484375 -0.640625 C 3.828125 -0.640625 4.144531 -0.707031 4.4375 -0.84375 C 4.738281 -0.988281 4.984375 -1.203125 5.171875 -1.484375 L 5.75 -1.09375 C 5.519531 -0.71875 5.207031 -0.429688 4.8125 -0.234375 C 4.414062 -0.0351562 3.972656 0.0625 3.484375 0.0625 Z M 3.484375 0.0625 "/></g></g></g><g fill="#1086f4" fill-opacity="1"><g transform="translate(104.326597, 295.341602)"><g><path d="M 4.140625 -0.359375 C 3.992188 -0.222656 3.8125 -0.117188 3.59375 -0.046875 C 3.375 0.0234375 3.148438 0.0625 2.921875 0.0625 C 2.367188 0.0625 1.945312 -0.0820312 1.65625 -0.375 C 1.363281 -0.675781 1.21875 -1.09375 1.21875 -1.625 L 1.21875 -5.125 L 0.1875 -5.125 L 0.1875 -5.78125 L 1.21875 -5.78125 L 1.21875 -7.046875 L 2 -7.046875 L 2 -5.78125 L 3.765625 -5.78125 L 3.765625 -5.125 L 2 -5.125 L 2 -1.671875 C 2 -1.328125 2.082031 -1.0625 2.25 -0.875 C 2.425781 -0.695312 2.675781 -0.609375 3 -0.609375 C 3.164062 -0.609375 3.320312 -0.632812 3.46875 -0.6875 C 3.625 -0.738281 3.753906 -0.8125 3.859375 -0.90625 Z M 4.140625 -0.359375 "/></g></g></g><g fill="#1086f4" fill-opacity="1"><g transform="translate(110.989455, 295.341602)"><g><path d="M 1.09375 -5.78125 L 1.875 -5.78125 L 1.875 0 L 1.09375 0 Z M 1.484375 -7.046875 C 1.316406 -7.046875 1.175781 -7.097656 1.0625 -7.203125 C 0.957031 -7.316406 0.90625 -7.453125 0.90625 -7.609375 C 0.90625 -7.753906 0.957031 -7.878906 1.0625 -7.984375 C 1.175781 -8.097656 1.316406 -8.15625 1.484375 -8.15625 C 1.640625 -8.15625 1.769531 -8.101562 1.875 -8 C 1.988281 -7.894531 2.046875 -7.769531 2.046875 -7.625 C 2.046875 -7.457031 1.988281 -7.316406 1.875 -7.203125 C 1.769531 -7.097656 1.640625 -7.046875 1.484375 -7.046875 Z M 1.484375 -7.046875 "/></g></g></g><g fill="#1086f4" fill-opacity="1"><g transform="translate(116.146386, 295.341602)"><g><path d="M 4.03125 -5.828125 C 4.757812 -5.828125 5.335938 -5.613281 5.765625 -5.1875 C 6.191406 -4.769531 6.40625 -4.160156 6.40625 -3.359375 L 6.40625 0 L 5.625 0 L 5.625 -3.28125 C 5.625 -3.882812 5.472656 -4.34375 5.171875 -4.65625 C 4.878906 -4.96875 4.453125 -5.125 3.890625 -5.125 C 3.265625 -5.125 2.769531 -4.9375 2.40625 -4.5625 C 2.050781 -4.195312 1.875 -3.6875 1.875 -3.03125 L 1.875 0 L 1.09375 0 L 1.09375 -5.78125 L 1.84375 -5.78125 L 1.84375 -4.71875 C 2.050781 -5.070312 2.34375 -5.34375 2.71875 -5.53125 C 3.09375 -5.726562 3.53125 -5.828125 4.03125 -5.828125 Z M 4.03125 -5.828125 "/></g></g></g><g fill="#1086f4" fill-opacity="1"><g transform="translate(125.788141, 295.341602)"><g><path d="M 6.453125 -5.78125 L 6.453125 -0.703125 C 6.453125 0.273438 6.207031 1 5.71875 1.46875 C 5.238281 1.945312 4.515625 2.1875 3.546875 2.1875 C 3.015625 2.1875 2.507812 2.109375 2.03125 1.953125 C 1.550781 1.796875 1.160156 1.578125 0.859375 1.296875 L 1.25 0.703125 C 1.53125 0.953125 1.867188 1.144531 2.265625 1.28125 C 2.671875 1.425781 3.09375 1.5 3.53125 1.5 C 4.257812 1.5 4.796875 1.328125 5.140625 0.984375 C 5.492188 0.640625 5.671875 0.109375 5.671875 -0.609375 L 5.671875 -1.34375 C 5.421875 -0.976562 5.097656 -0.695312 4.703125 -0.5 C 4.316406 -0.3125 3.882812 -0.21875 3.40625 -0.21875 C 2.863281 -0.21875 2.367188 -0.335938 1.921875 -0.578125 C 1.484375 -0.816406 1.132812 -1.148438 0.875 -1.578125 C 0.625 -2.003906 0.5 -2.488281 0.5 -3.03125 C 0.5 -3.570312 0.625 -4.054688 0.875 -4.484375 C 1.132812 -4.910156 1.484375 -5.238281 1.921875 -5.46875 C 2.359375 -5.707031 2.851562 -5.828125 3.40625 -5.828125 C 3.894531 -5.828125 4.335938 -5.726562 4.734375 -5.53125 C 5.128906 -5.332031 5.453125 -5.046875 5.703125 -4.671875 L 5.703125 -5.78125 Z M 3.484375 -0.90625 C 3.898438 -0.90625 4.273438 -0.992188 4.609375 -1.171875 C 4.953125 -1.359375 5.21875 -1.613281 5.40625 -1.9375 C 5.59375 -2.257812 5.6875 -2.625 5.6875 -3.03125 C 5.6875 -3.445312 5.59375 -3.8125 5.40625 -4.125 C 5.21875 -4.445312 4.957031 -4.695312 4.625 -4.875 C 4.289062 -5.050781 3.910156 -5.140625 3.484375 -5.140625 C 3.066406 -5.140625 2.691406 -5.050781 2.359375 -4.875 C 2.023438 -4.707031 1.765625 -4.460938 1.578125 -4.140625 C 1.390625 -3.816406 1.296875 -3.445312 1.296875 -3.03125 C 1.296875 -2.625 1.390625 -2.257812 1.578125 -1.9375 C 1.765625 -1.613281 2.023438 -1.359375 2.359375 -1.171875 C 2.691406 -0.992188 3.066406 -0.90625 3.484375 -0.90625 Z M 3.484375 -0.90625 "/></g></g></g><g fill="#1086f4" fill-opacity="1"><g transform="translate(135.528831, 295.341602)"><g/></g></g><g fill="#1086f4" fill-opacity="1"><g transform="translate(140.608811, 295.341602)"><g><path d="M 1.25 -7.703125 L 4.390625 -7.703125 C 5.203125 -7.703125 5.921875 -7.535156 6.546875 -7.203125 C 7.171875 -6.878906 7.65625 -6.425781 8 -5.84375 C 8.34375 -5.257812 8.515625 -4.59375 8.515625 -3.84375 C 8.515625 -3.101562 8.34375 -2.441406 8 -1.859375 C 7.65625 -1.273438 7.171875 -0.816406 6.546875 -0.484375 C 5.921875 -0.160156 5.203125 0 4.390625 0 L 1.25 0 Z M 4.34375 -0.703125 C 5.019531 -0.703125 5.609375 -0.832031 6.109375 -1.09375 C 6.617188 -1.363281 7.015625 -1.734375 7.296875 -2.203125 C 7.578125 -2.679688 7.71875 -3.226562 7.71875 -3.84375 C 7.71875 -4.46875 7.578125 -5.015625 7.296875 -5.484375 C 7.015625 -5.953125 6.617188 -6.320312 6.109375 -6.59375 C 5.609375 -6.863281 5.019531 -7 4.34375 -7 L 2.0625 -7 L 2.0625 -0.703125 Z M 4.34375 -0.703125 "/></g></g></g><g fill="#1086f4" fill-opacity="1"><g transform="translate(151.888411, 295.341602)"><g><path d="M 3.453125 0.0625 C 2.898438 0.0625 2.398438 -0.0625 1.953125 -0.3125 C 1.503906 -0.570312 1.148438 -0.925781 0.890625 -1.375 C 0.628906 -1.820312 0.5 -2.328125 0.5 -2.890625 C 0.5 -3.453125 0.628906 -3.957031 0.890625 -4.40625 C 1.148438 -4.851562 1.503906 -5.203125 1.953125 -5.453125 C 2.398438 -5.703125 2.898438 -5.828125 3.453125 -5.828125 C 4.015625 -5.828125 4.515625 -5.703125 4.953125 -5.453125 C 5.398438 -5.203125 5.75 -4.851562 6 -4.40625 C 6.257812 -3.957031 6.390625 -3.453125 6.390625 -2.890625 C 6.390625 -2.328125 6.257812 -1.820312 6 -1.375 C 5.75 -0.925781 5.398438 -0.570312 4.953125 -0.3125 C 4.515625 -0.0625 4.015625 0.0625 3.453125 0.0625 Z M 3.453125 -0.640625 C 3.859375 -0.640625 4.222656 -0.734375 4.546875 -0.921875 C 4.878906 -1.109375 5.132812 -1.375 5.3125 -1.71875 C 5.5 -2.0625 5.59375 -2.453125 5.59375 -2.890625 C 5.59375 -3.328125 5.5 -3.71875 5.3125 -4.0625 C 5.132812 -4.414062 4.878906 -4.679688 4.546875 -4.859375 C 4.222656 -5.046875 3.859375 -5.140625 3.453125 -5.140625 C 3.046875 -5.140625 2.675781 -5.046875 2.34375 -4.859375 C 2.019531 -4.679688 1.765625 -4.414062 1.578125 -4.0625 C 1.390625 -3.71875 1.296875 -3.328125 1.296875 -2.890625 C 1.296875 -2.453125 1.390625 -2.0625 1.578125 -1.71875 C 1.765625 -1.375 2.019531 -1.109375 2.34375 -0.921875 C 2.675781 -0.734375 3.046875 -0.640625 3.453125 -0.640625 Z M 3.453125 -0.640625 "/></g></g></g><g fill="#1086f4" fill-opacity="1"><g transform="translate(160.980558, 295.341602)"><g><path d="M 4.140625 -0.359375 C 3.992188 -0.222656 3.8125 -0.117188 3.59375 -0.046875 C 3.375 0.0234375 3.148438 0.0625 2.921875 0.0625 C 2.367188 0.0625 1.945312 -0.0820312 1.65625 -0.375 C 1.363281 -0.675781 1.21875 -1.09375 1.21875 -1.625 L 1.21875 -5.125 L 0.1875 -5.125 L 0.1875 -5.78125 L 1.21875 -5.78125 L 1.21875 -7.046875 L 2 -7.046875 L 2 -5.78125 L 3.765625 -5.78125 L 3.765625 -5.125 L 2 -5.125 L 2 -1.671875 C 2 -1.328125 2.082031 -1.0625 2.25 -0.875 C 2.425781 -0.695312 2.675781 -0.609375 3 -0.609375 C 3.164062 -0.609375 3.320312 -0.632812 3.46875 -0.6875 C 3.625 -0.738281 3.753906 -0.8125 3.859375 -0.90625 Z M 4.140625 -0.359375 "/></g></g></g><g fill="#1086f4" fill-opacity="1"><g transform="translate(167.643422, 295.341602)"><g><path d="M 2.640625 0.0625 C 2.171875 0.0625 1.722656 -0.00390625 1.296875 -0.140625 C 0.867188 -0.285156 0.53125 -0.457031 0.28125 -0.65625 L 0.640625 -1.28125 C 0.878906 -1.082031 1.179688 -0.921875 1.546875 -0.796875 C 1.910156 -0.679688 2.289062 -0.625 2.6875 -0.625 C 3.21875 -0.625 3.609375 -0.707031 3.859375 -0.875 C 4.117188 -1.039062 4.25 -1.273438 4.25 -1.578125 C 4.25 -1.785156 4.175781 -1.945312 4.03125 -2.0625 C 3.894531 -2.1875 3.71875 -2.28125 3.5 -2.34375 C 3.289062 -2.40625 3.007812 -2.46875 2.65625 -2.53125 C 2.1875 -2.613281 1.804688 -2.703125 1.515625 -2.796875 C 1.234375 -2.890625 0.992188 -3.046875 0.796875 -3.265625 C 0.597656 -3.484375 0.5 -3.789062 0.5 -4.1875 C 0.5 -4.664062 0.695312 -5.054688 1.09375 -5.359375 C 1.5 -5.671875 2.0625 -5.828125 2.78125 -5.828125 C 3.15625 -5.828125 3.53125 -5.773438 3.90625 -5.671875 C 4.28125 -5.578125 4.585938 -5.453125 4.828125 -5.296875 L 4.484375 -4.65625 C 4.003906 -4.988281 3.4375 -5.15625 2.78125 -5.15625 C 2.28125 -5.15625 1.90625 -5.066406 1.65625 -4.890625 C 1.40625 -4.710938 1.28125 -4.484375 1.28125 -4.203125 C 1.28125 -3.984375 1.347656 -3.804688 1.484375 -3.671875 C 1.628906 -3.535156 1.804688 -3.4375 2.015625 -3.375 C 2.234375 -3.3125 2.53125 -3.25 2.90625 -3.1875 C 3.363281 -3.101562 3.734375 -3.015625 4.015625 -2.921875 C 4.296875 -2.835938 4.535156 -2.6875 4.734375 -2.46875 C 4.929688 -2.257812 5.03125 -1.96875 5.03125 -1.59375 C 5.03125 -1.09375 4.816406 -0.691406 4.390625 -0.390625 C 3.972656 -0.0859375 3.390625 0.0625 2.640625 0.0625 Z M 2.640625 0.0625 "/></g></g></g><g fill="#1086f4" fill-opacity="1"><g transform="translate(175.218644, 295.341602)"><g><path d="M 1.171875 -1.140625 C 1.347656 -1.140625 1.488281 -1.082031 1.59375 -0.96875 C 1.707031 -0.851562 1.765625 -0.710938 1.765625 -0.546875 C 1.765625 -0.460938 1.75 -0.367188 1.71875 -0.265625 C 1.695312 -0.160156 1.660156 -0.0390625 1.609375 0.09375 L 1.140625 1.609375 L 0.609375 1.609375 L 0.984375 0.015625 C 0.867188 -0.0234375 0.773438 -0.09375 0.703125 -0.1875 C 0.628906 -0.289062 0.59375 -0.410156 0.59375 -0.546875 C 0.59375 -0.710938 0.644531 -0.851562 0.75 -0.96875 C 0.863281 -1.082031 1.003906 -1.140625 1.171875 -1.140625 Z M 1.171875 -1.140625 "/></g></g></g><g fill="#1086f4" fill-opacity="1"><g transform="translate(179.749016, 295.341602)"><g/></g></g><g fill="#1086f4" fill-opacity="1"><g transform="translate(184.829002, 295.341602)"><g><path d="M 1.25 -7.703125 L 4.390625 -7.703125 C 5.203125 -7.703125 5.921875 -7.535156 6.546875 -7.203125 C 7.171875 -6.878906 7.65625 -6.425781 8 -5.84375 C 8.34375 -5.257812 8.515625 -4.59375 8.515625 -3.84375 C 8.515625 -3.101562 8.34375 -2.441406 8 -1.859375 C 7.65625 -1.273438 7.171875 -0.816406 6.546875 -0.484375 C 5.921875 -0.160156 5.203125 0 4.390625 0 L 1.25 0 Z M 4.34375 -0.703125 C 5.019531 -0.703125 5.609375 -0.832031 6.109375 -1.09375 C 6.617188 -1.363281 7.015625 -1.734375 7.296875 -2.203125 C 7.578125 -2.679688 7.71875 -3.226562 7.71875 -3.84375 C 7.71875 -4.46875 7.578125 -5.015625 7.296875 -5.484375 C 7.015625 -5.953125 6.617188 -6.320312 6.109375 -6.59375 C 5.609375 -6.863281 5.019531 -7 4.34375 -7 L 2.0625 -7 L 2.0625 -0.703125 Z M 4.34375 -0.703125 "/></g></g></g><g fill="#1086f4" fill-opacity="1"><g transform="translate(196.108607, 295.341602)"><g><path d="M 6.125 -2.65625 L 1.28125 -2.65625 C 1.332031 -2.050781 1.566406 -1.5625 1.984375 -1.1875 C 2.398438 -0.820312 2.925781 -0.640625 3.5625 -0.640625 C 3.925781 -0.640625 4.253906 -0.703125 4.546875 -0.828125 C 4.847656 -0.953125 5.109375 -1.140625 5.328125 -1.390625 L 5.78125 -0.890625 C 5.519531 -0.578125 5.195312 -0.335938 4.8125 -0.171875 C 4.425781 -0.015625 4.003906 0.0625 3.546875 0.0625 C 2.953125 0.0625 2.425781 -0.0625 1.96875 -0.3125 C 1.507812 -0.570312 1.148438 -0.925781 0.890625 -1.375 C 0.628906 -1.820312 0.5 -2.328125 0.5 -2.890625 C 0.5 -3.453125 0.625 -3.957031 0.875 -4.40625 C 1.125 -4.851562 1.460938 -5.203125 1.890625 -5.453125 C 2.316406 -5.703125 2.796875 -5.828125 3.328125 -5.828125 C 3.867188 -5.828125 4.347656 -5.703125 4.765625 -5.453125 C 5.191406 -5.203125 5.523438 -4.851562 5.765625 -4.40625 C 6.015625 -3.96875 6.140625 -3.460938 6.140625 -2.890625 Z M 3.328125 -5.15625 C 2.773438 -5.15625 2.304688 -4.976562 1.921875 -4.625 C 1.546875 -4.269531 1.332031 -3.804688 1.28125 -3.234375 L 5.390625 -3.234375 C 5.335938 -3.804688 5.125 -4.269531 4.75 -4.625 C 4.375 -4.976562 3.898438 -5.15625 3.328125 -5.15625 Z M 3.328125 -5.15625 "/></g></g></g><g fill="#1086f4" fill-opacity="1"><g transform="translate(204.947932, 295.341602)"><g><path d="M 1.09375 -8.15625 L 1.875 -8.15625 L 1.875 0 L 1.09375 0 Z M 1.09375 -8.15625 "/></g></g></g><g fill="#1086f4" fill-opacity="1"><g transform="translate(210.104868, 295.341602)"><g><path d="M 1.09375 -5.78125 L 1.875 -5.78125 L 1.875 0 L 1.09375 0 Z M 1.484375 -7.046875 C 1.316406 -7.046875 1.175781 -7.097656 1.0625 -7.203125 C 0.957031 -7.316406 0.90625 -7.453125 0.90625 -7.609375 C 0.90625 -7.753906 0.957031 -7.878906 1.0625 -7.984375 C 1.175781 -8.097656 1.316406 -8.15625 1.484375 -8.15625 C 1.640625 -8.15625 1.769531 -8.101562 1.875 -8 C 1.988281 -7.894531 2.046875 -7.769531 2.046875 -7.625 C 2.046875 -7.457031 1.988281 -7.316406 1.875 -7.203125 C 1.769531 -7.097656 1.640625 -7.046875 1.484375 -7.046875 Z M 1.484375 -7.046875 "/></g></g></g><g fill="#1086f4" fill-opacity="1"><g transform="translate(215.261804, 295.341602)"><g><path d="M 5.953125 -5.78125 L 3.375 0 L 2.578125 0 L 0.015625 -5.78125 L 0.828125 -5.78125 L 2.984375 -0.859375 L 5.1875 -5.78125 Z M 5.953125 -5.78125 "/></g></g></g><g fill="#1086f4" fill-opacity="1"><g transform="translate(223.41961, 295.341602)"><g><path d="M 6.125 -2.65625 L 1.28125 -2.65625 C 1.332031 -2.050781 1.566406 -1.5625 1.984375 -1.1875 C 2.398438 -0.820312 2.925781 -0.640625 3.5625 -0.640625 C 3.925781 -0.640625 4.253906 -0.703125 4.546875 -0.828125 C 4.847656 -0.953125 5.109375 -1.140625 5.328125 -1.390625 L 5.78125 -0.890625 C 5.519531 -0.578125 5.195312 -0.335938 4.8125 -0.171875 C 4.425781 -0.015625 4.003906 0.0625 3.546875 0.0625 C 2.953125 0.0625 2.425781 -0.0625 1.96875 -0.3125 C 1.507812 -0.570312 1.148438 -0.925781 0.890625 -1.375 C 0.628906 -1.820312 0.5 -2.328125 0.5 -2.890625 C 0.5 -3.453125 0.625 -3.957031 0.875 -4.40625 C 1.125 -4.851562 1.460938 -5.203125 1.890625 -5.453125 C 2.316406 -5.703125 2.796875 -5.828125 3.328125 -5.828125 C 3.867188 -5.828125 4.347656 -5.703125 4.765625 -5.453125 C 5.191406 -5.203125 5.523438 -4.851562 5.765625 -4.40625 C 6.015625 -3.96875 6.140625 -3.460938 6.140625 -2.890625 Z M 3.328125 -5.15625 C 2.773438 -5.15625 2.304688 -4.976562 1.921875 -4.625 C 1.546875 -4.269531 1.332031 -3.804688 1.28125 -3.234375 L 5.390625 -3.234375 C 5.335938 -3.804688 5.125 -4.269531 4.75 -4.625 C 4.375 -4.976562 3.898438 -5.15625 3.328125 -5.15625 Z M 3.328125 -5.15625 "/></g></g></g><g fill="#1086f4" fill-opacity="1"><g transform="translate(232.258935, 295.341602)"><g><path d="M 1.84375 -4.65625 C 2.019531 -5.039062 2.289062 -5.332031 2.65625 -5.53125 C 3.019531 -5.726562 3.46875 -5.828125 4 -5.828125 L 4 -5.078125 L 3.8125 -5.078125 C 3.207031 -5.078125 2.734375 -4.890625 2.390625 -4.515625 C 2.046875 -4.140625 1.875 -3.617188 1.875 -2.953125 L 1.875 0 L 1.09375 0 L 1.09375 -5.78125 L 1.84375 -5.78125 Z M 1.84375 -4.65625 "/></g></g></g><g fill="#1086f4" fill-opacity="1"><g transform="translate(238.866844, 295.341602)"><g><path d="M 1.09375 -5.78125 L 1.875 -5.78125 L 1.875 0 L 1.09375 0 Z M 1.484375 -7.046875 C 1.316406 -7.046875 1.175781 -7.097656 1.0625 -7.203125 C 0.957031 -7.316406 0.90625 -7.453125 0.90625 -7.609375 C 0.90625 -7.753906 0.957031 -7.878906 1.0625 -7.984375 C 1.175781 -8.097656 1.316406 -8.15625 1.484375 -8.15625 C 1.640625 -8.15625 1.769531 -8.101562 1.875 -8 C 1.988281 -7.894531 2.046875 -7.769531 2.046875 -7.625 C 2.046875 -7.457031 1.988281 -7.316406 1.875 -7.203125 C 1.769531 -7.097656 1.640625 -7.046875 1.484375 -7.046875 Z M 1.484375 -7.046875 "/></g></g></g><g fill="#1086f4" fill-opacity="1"><g transform="translate(244.023781, 295.341602)"><g><path d="M 4.03125 -5.828125 C 4.757812 -5.828125 5.335938 -5.613281 5.765625 -5.1875 C 6.191406 -4.769531 6.40625 -4.160156 6.40625 -3.359375 L 6.40625 0 L 5.625 0 L 5.625 -3.28125 C 5.625 -3.882812 5.472656 -4.34375 5.171875 -4.65625 C 4.878906 -4.96875 4.453125 -5.125 3.890625 -5.125 C 3.265625 -5.125 2.769531 -4.9375 2.40625 -4.5625 C 2.050781 -4.195312 1.875 -3.6875 1.875 -3.03125 L 1.875 0 L 1.09375 0 L 1.09375 -5.78125 L 1.84375 -5.78125 L 1.84375 -4.71875 C 2.050781 -5.070312 2.34375 -5.34375 2.71875 -5.53125 C 3.09375 -5.726562 3.53125 -5.828125 4.03125 -5.828125 Z M 4.03125 -5.828125 "/></g></g></g><g fill="#1086f4" fill-opacity="1"><g transform="translate(253.665542, 295.341602)"><g><path d="M 6.453125 -5.78125 L 6.453125 -0.703125 C 6.453125 0.273438 6.207031 1 5.71875 1.46875 C 5.238281 1.945312 4.515625 2.1875 3.546875 2.1875 C 3.015625 2.1875 2.507812 2.109375 2.03125 1.953125 C 1.550781 1.796875 1.160156 1.578125 0.859375 1.296875 L 1.25 0.703125 C 1.53125 0.953125 1.867188 1.144531 2.265625 1.28125 C 2.671875 1.425781 3.09375 1.5 3.53125 1.5 C 4.257812 1.5 4.796875 1.328125 5.140625 0.984375 C 5.492188 0.640625 5.671875 0.109375 5.671875 -0.609375 L 5.671875 -1.34375 C 5.421875 -0.976562 5.097656 -0.695312 4.703125 -0.5 C 4.316406 -0.3125 3.882812 -0.21875 3.40625 -0.21875 C 2.863281 -0.21875 2.367188 -0.335938 1.921875 -0.578125 C 1.484375 -0.816406 1.132812 -1.148438 0.875 -1.578125 C 0.625 -2.003906 0.5 -2.488281 0.5 -3.03125 C 0.5 -3.570312 0.625 -4.054688 0.875 -4.484375 C 1.132812 -4.910156 1.484375 -5.238281 1.921875 -5.46875 C 2.359375 -5.707031 2.851562 -5.828125 3.40625 -5.828125 C 3.894531 -5.828125 4.335938 -5.726562 4.734375 -5.53125 C 5.128906 -5.332031 5.453125 -5.046875 5.703125 -4.671875 L 5.703125 -5.78125 Z M 3.484375 -0.90625 C 3.898438 -0.90625 4.273438 -0.992188 4.609375 -1.171875 C 4.953125 -1.359375 5.21875 -1.613281 5.40625 -1.9375 C 5.59375 -2.257812 5.6875 -2.625 5.6875 -3.03125 C 5.6875 -3.445312 5.59375 -3.8125 5.40625 -4.125 C 5.21875 -4.445312 4.957031 -4.695312 4.625 -4.875 C 4.289062 -5.050781 3.910156 -5.140625 3.484375 -5.140625 C 3.066406 -5.140625 2.691406 -5.050781 2.359375 -4.875 C 2.023438 -4.707031 1.765625 -4.460938 1.578125 -4.140625 C 1.390625 -3.816406 1.296875 -3.445312 1.296875 -3.03125 C 1.296875 -2.625 1.390625 -2.257812 1.578125 -1.9375 C 1.765625 -1.613281 2.023438 -1.359375 2.359375 -1.171875 C 2.691406 -0.992188 3.066406 -0.90625 3.484375 -0.90625 Z M 3.484375 -0.90625 "/></g></g></g><g fill="#1086f4" fill-opacity="1"><g transform="translate(263.406226, 295.341602)"><g/></g></g><g fill="#1086f4" fill-opacity="1"><g transform="translate(268.486212, 295.341602)"><g><path d="M 6.515625 0 L 4.75 -2.46875 C 4.550781 -2.445312 4.347656 -2.4375 4.140625 -2.4375 L 2.0625 -2.4375 L 2.0625 0 L 1.25 0 L 1.25 -7.703125 L 4.140625 -7.703125 C 5.117188 -7.703125 5.882812 -7.46875 6.4375 -7 C 7 -6.53125 7.28125 -5.882812 7.28125 -5.0625 C 7.28125 -4.457031 7.128906 -3.945312 6.828125 -3.53125 C 6.523438 -3.125 6.085938 -2.828125 5.515625 -2.640625 L 7.40625 0 Z M 4.109375 -3.140625 C 4.878906 -3.140625 5.460938 -3.304688 5.859375 -3.640625 C 6.265625 -3.972656 6.46875 -4.445312 6.46875 -5.0625 C 6.46875 -5.6875 6.265625 -6.164062 5.859375 -6.5 C 5.460938 -6.832031 4.878906 -7 4.109375 -7 L 2.0625 -7 L 2.0625 -3.140625 Z M 4.109375 -3.140625 "/></g></g></g><g fill="#1086f4" fill-opacity="1"><g transform="translate(278.633619, 295.341602)"><g><path d="M 6.125 -2.65625 L 1.28125 -2.65625 C 1.332031 -2.050781 1.566406 -1.5625 1.984375 -1.1875 C 2.398438 -0.820312 2.925781 -0.640625 3.5625 -0.640625 C 3.925781 -0.640625 4.253906 -0.703125 4.546875 -0.828125 C 4.847656 -0.953125 5.109375 -1.140625 5.328125 -1.390625 L 5.78125 -0.890625 C 5.519531 -0.578125 5.195312 -0.335938 4.8125 -0.171875 C 4.425781 -0.015625 4.003906 0.0625 3.546875 0.0625 C 2.953125 0.0625 2.425781 -0.0625 1.96875 -0.3125 C 1.507812 -0.570312 1.148438 -0.925781 0.890625 -1.375 C 0.628906 -1.820312 0.5 -2.328125 0.5 -2.890625 C 0.5 -3.453125 0.625 -3.957031 0.875 -4.40625 C 1.125 -4.851562 1.460938 -5.203125 1.890625 -5.453125 C 2.316406 -5.703125 2.796875 -5.828125 3.328125 -5.828125 C 3.867188 -5.828125 4.347656 -5.703125 4.765625 -5.453125 C 5.191406 -5.203125 5.523438 -4.851562 5.765625 -4.40625 C 6.015625 -3.96875 6.140625 -3.460938 6.140625 -2.890625 Z M 3.328125 -5.15625 C 2.773438 -5.15625 2.304688 -4.976562 1.921875 -4.625 C 1.546875 -4.269531 1.332031 -3.804688 1.28125 -3.234375 L 5.390625 -3.234375 C 5.335938 -3.804688 5.125 -4.269531 4.75 -4.625 C 4.375 -4.976562 3.898438 -5.15625 3.328125 -5.15625 Z M 3.328125 -5.15625 "/></g></g></g><g fill="#1086f4" fill-opacity="1"><g transform="translate(287.472943, 295.341602)"><g><path d="M 2.640625 0.0625 C 2.171875 0.0625 1.722656 -0.00390625 1.296875 -0.140625 C 0.867188 -0.285156 0.53125 -0.457031 0.28125 -0.65625 L 0.640625 -1.28125 C 0.878906 -1.082031 1.179688 -0.921875 1.546875 -0.796875 C 1.910156 -0.679688 2.289062 -0.625 2.6875 -0.625 C 3.21875 -0.625 3.609375 -0.707031 3.859375 -0.875 C 4.117188 -1.039062 4.25 -1.273438 4.25 -1.578125 C 4.25 -1.785156 4.175781 -1.945312 4.03125 -2.0625 C 3.894531 -2.1875 3.71875 -2.28125 3.5 -2.34375 C 3.289062 -2.40625 3.007812 -2.46875 2.65625 -2.53125 C 2.1875 -2.613281 1.804688 -2.703125 1.515625 -2.796875 C 1.234375 -2.890625 0.992188 -3.046875 0.796875 -3.265625 C 0.597656 -3.484375 0.5 -3.789062 0.5 -4.1875 C 0.5 -4.664062 0.695312 -5.054688 1.09375 -5.359375 C 1.5 -5.671875 2.0625 -5.828125 2.78125 -5.828125 C 3.15625 -5.828125 3.53125 -5.773438 3.90625 -5.671875 C 4.28125 -5.578125 4.585938 -5.453125 4.828125 -5.296875 L 4.484375 -4.65625 C 4.003906 -4.988281 3.4375 -5.15625 2.78125 -5.15625 C 2.28125 -5.15625 1.90625 -5.066406 1.65625 -4.890625 C 1.40625 -4.710938 1.28125 -4.484375 1.28125 -4.203125 C 1.28125 -3.984375 1.347656 -3.804688 1.484375 -3.671875 C 1.628906 -3.535156 1.804688 -3.4375 2.015625 -3.375 C 2.234375 -3.3125 2.53125 -3.25 2.90625 -3.1875 C 3.363281 -3.101562 3.734375 -3.015625 4.015625 -2.921875 C 4.296875 -2.835938 4.535156 -2.6875 4.734375 -2.46875 C 4.929688 -2.257812 5.03125 -1.96875 5.03125 -1.59375 C 5.03125 -1.09375 4.816406 -0.691406 4.390625 -0.390625 C 3.972656 -0.0859375 3.390625 0.0625 2.640625 0.0625 Z M 2.640625 0.0625 "/></g></g></g><g fill="#1086f4" fill-opacity="1"><g transform="translate(295.048153, 295.341602)"><g><path d="M 6.296875 -5.78125 L 6.296875 0 L 5.5625 0 L 5.5625 -1.0625 C 5.351562 -0.707031 5.066406 -0.429688 4.703125 -0.234375 C 4.347656 -0.0351562 3.9375 0.0625 3.46875 0.0625 C 2.71875 0.0625 2.125 -0.144531 1.6875 -0.5625 C 1.25 -0.988281 1.03125 -1.613281 1.03125 -2.4375 L 1.03125 -5.78125 L 1.8125 -5.78125 L 1.8125 -2.515625 C 1.8125 -1.898438 1.960938 -1.4375 2.265625 -1.125 C 2.566406 -0.8125 2.992188 -0.65625 3.546875 -0.65625 C 4.160156 -0.65625 4.640625 -0.835938 4.984375 -1.203125 C 5.335938 -1.578125 5.515625 -2.09375 5.515625 -2.75 L 5.515625 -5.78125 Z M 6.296875 -5.78125 "/></g></g></g><g fill="#1086f4" fill-opacity="1"><g transform="translate(304.645946, 295.341602)"><g><path d="M 1.09375 -8.15625 L 1.875 -8.15625 L 1.875 0 L 1.09375 0 Z M 1.09375 -8.15625 "/></g></g></g><g fill="#1086f4" fill-opacity="1"><g transform="translate(309.802882, 295.341602)"><g><path d="M 4.140625 -0.359375 C 3.992188 -0.222656 3.8125 -0.117188 3.59375 -0.046875 C 3.375 0.0234375 3.148438 0.0625 2.921875 0.0625 C 2.367188 0.0625 1.945312 -0.0820312 1.65625 -0.375 C 1.363281 -0.675781 1.21875 -1.09375 1.21875 -1.625 L 1.21875 -5.125 L 0.1875 -5.125 L 0.1875 -5.78125 L 1.21875 -5.78125 L 1.21875 -7.046875 L 2 -7.046875 L 2 -5.78125 L 3.765625 -5.78125 L 3.765625 -5.125 L 2 -5.125 L 2 -1.671875 C 2 -1.328125 2.082031 -1.0625 2.25 -0.875 C 2.425781 -0.695312 2.675781 -0.609375 3 -0.609375 C 3.164062 -0.609375 3.320312 -0.632812 3.46875 -0.6875 C 3.625 -0.738281 3.753906 -0.8125 3.859375 -0.90625 Z M 4.140625 -0.359375 "/></g></g></g><g fill="#1086f4" fill-opacity="1"><g transform="translate(316.465747, 295.341602)"><g><path d="M 2.640625 0.0625 C 2.171875 0.0625 1.722656 -0.00390625 1.296875 -0.140625 C 0.867188 -0.285156 0.53125 -0.457031 0.28125 -0.65625 L 0.640625 -1.28125 C 0.878906 -1.082031 1.179688 -0.921875 1.546875 -0.796875 C 1.910156 -0.679688 2.289062 -0.625 2.6875 -0.625 C 3.21875 -0.625 3.609375 -0.707031 3.859375 -0.875 C 4.117188 -1.039062 4.25 -1.273438 4.25 -1.578125 C 4.25 -1.785156 4.175781 -1.945312 4.03125 -2.0625 C 3.894531 -2.1875 3.71875 -2.28125 3.5 -2.34375 C 3.289062 -2.40625 3.007812 -2.46875 2.65625 -2.53125 C 2.1875 -2.613281 1.804688 -2.703125 1.515625 -2.796875 C 1.234375 -2.890625 0.992188 -3.046875 0.796875 -3.265625 C 0.597656 -3.484375 0.5 -3.789062 0.5 -4.1875 C 0.5 -4.664062 0.695312 -5.054688 1.09375 -5.359375 C 1.5 -5.671875 2.0625 -5.828125 2.78125 -5.828125 C 3.15625 -5.828125 3.53125 -5.773438 3.90625 -5.671875 C 4.28125 -5.578125 4.585938 -5.453125 4.828125 -5.296875 L 4.484375 -4.65625 C 4.003906 -4.988281 3.4375 -5.15625 2.78125 -5.15625 C 2.28125 -5.15625 1.90625 -5.066406 1.65625 -4.890625 C 1.40625 -4.710938 1.28125 -4.484375 1.28125 -4.203125 C 1.28125 -3.984375 1.347656 -3.804688 1.484375 -3.671875 C 1.628906 -3.535156 1.804688 -3.4375 2.015625 -3.375 C 2.234375 -3.3125 2.53125 -3.25 2.90625 -3.1875 C 3.363281 -3.101562 3.734375 -3.015625 4.015625 -2.921875 C 4.296875 -2.835938 4.535156 -2.6875 4.734375 -2.46875 C 4.929688 -2.257812 5.03125 -1.96875 5.03125 -1.59375 C 5.03125 -1.09375 4.816406 -0.691406 4.390625 -0.390625 C 3.972656 -0.0859375 3.390625 0.0625 2.640625 0.0625 Z M 2.640625 0.0625 "/></g></g></g><g fill="#1086f4" fill-opacity="1"><g transform="translate(324.040957, 295.341602)"><g><path d="M 1.171875 0.0625 C 1.003906 0.0625 0.863281 0.00390625 0.75 -0.109375 C 0.632812 -0.234375 0.578125 -0.378906 0.578125 -0.546875 C 0.578125 -0.710938 0.632812 -0.851562 0.75 -0.96875 C 0.863281 -1.082031 1.003906 -1.140625 1.171875 -1.140625 C 1.328125 -1.140625 1.460938 -1.082031 1.578125 -0.96875 C 1.703125 -0.851562 1.765625 -0.710938 1.765625 -0.546875 C 1.765625 -0.378906 1.703125 -0.234375 1.578125 -0.109375 C 1.460938 0.00390625 1.328125 0.0625 1.171875 0.0625 Z M 1.171875 0.0625 "/></g></g></g></svg>